<svg version="1.1" id="Layer_1" xmlns="http://www.w3.org/2000/svg" xmlns:xlink="http://www.w3.org/1999/xlink" x="0px" y="0px"
     viewBox="0 0 239 220" style="enable-background:new 0 0 239 220;" xml:space="preserve">
<style type="text/css">
    .st0{fill:#FFFFFF;stroke:#000000;stroke-miterlimit:10;}
    .st1{opacity:0.2;}
    .st2{enable-background:new    ;}
    .st3{opacity:0.3;}
    .st4{clip-path:url(#SVGID_2_);}
    .st5{opacity:0.5;}
    .st6{clip-path:url(#SVGID_4_);}
</style>
<g>
    <rect x="135.3" y="49.6" class="st0" width="4.5" height="93.7"/>
    <path class="st0" d="M147.1,38.1c1.9-1.2,4.5,0.5,4.5,2.7c0,1.8,0,3.4,0,3.4c0,0.1-15.1,8.3-15.1,8.3l-1.5-7.5
        C135,45.1,144.4,39.9,147.1,38.1z"/>
    <path class="st0" d="M135.3,51.4l30.1,16.8c0.5,0.3,0.9-0.4,0.5-0.7l-28.4-22.1L135.3,51.4z"/>
    <path class="st0" d="M137.7,48.9c0,0-19.5,13.6-30.2,20.7c-0.5,0.3-1-0.3-0.6-0.7c6.9-6.7,26.4-22.5,26.4-22.5L137.7,48.9z"/>
    <path class="st0" d="M137.7,46.2c0.2-1.6-5.3-20.8-8.1-30.6c-0.2-0.5-0.9-0.4-0.9,0.2l4.3,33.1L137.7,46.2z"/>
    <ellipse class="st0" cx="135.8" cy="48.4" rx="3.7" ry="4.6"/>
</g>
<g>
    <path class="st0" d="M203.2,47.7c2.1-1.4,5.1,0.5,5.1,3c0,2,0,3.8,0,3.8c0,0.1-17.4,11.3-17.4,11.3l-1.2-10.3
        C189.6,55.6,200.1,49.7,203.2,47.7z"/>
    <rect x="190.4" y="61.6" class="st0" width="5" height="104.7"/>
    <path class="st0" d="M187.7,58.7l-15.9,35.7c-0.3,0.6,0.6,1.1,1,0.5l19.6-33.6L187.7,58.7z"/>
    <path class="st0" d="M190,62.2c0,0-16.6-19.6-25.7-30.8c-0.4-0.5,0.3-1.2,0.8-0.8c8.5,7.4,27.3,26.4,27.3,26.4L190,62.2z"/>
    <path class="st0" d="M191.2,62.5c1.8,0.3,22.6-4.1,33.9-6.5c0.7-0.1,0.5-1.2-0.2-1.1l-36.4,2.2L191.2,62.5z"/>
    <ellipse class="st0" cx="190.1" cy="60" rx="3.6" ry="4.1"/>
</g>
<g>
    <path class="st0" d="M91.3,33.3c2.1-1.4,5.1,0.5,5.1,3c0,2,0,3.8,0,3.8c0,0.1-17.4,11.3-17.4,11.3l-1.2-10.3
        C77.8,41.1,88.3,35.3,91.3,33.3z"/>
    <polygon class="st0" points="78.5,151.9 83.5,151.9 83.5,46 78.5,47.2    "/>
    <path class="st0" d="M75.8,44.6l-7.1,38.4c-0.1,0.7,0.9,0.9,1.1,0.3L81,46.1L75.8,44.6z"/>
    <path class="st0" d="M79,47.9c0,0-20.7-15.1-32.3-23.9c-0.6-0.4,0-1.3,0.6-1c10,5.2,32.7,19.3,32.7,19.3L79,47.9z"/>
    <path class="st0" d="M80.3,47.7c1.8-0.1,21-9.3,31.4-14.3c0.6-0.3,0.3-1.3-0.4-1.1L76.5,43.1L80.3,47.7z"/>
    <ellipse transform="matrix(0.9182 -0.3962 0.3962 0.9182 -11.5573 34.6315)" class="st0" cx="78" cy="45.3" rx="3.6" ry="4.1"/>
</g>
<g>
    <g class="st1">
        <g>
            <g class="st2">
                <g>
                    <g>
                        <g>
                            <path d="M116.2,163.7l81.6-4.7l-81.4,4.7l0,0L116.2,163.7 M197.8,159l-26.6-1l-81.6,4.5l-0.2,0.1h0l-9.7-5.8l4.1,1.8
                                l-3.3,2.5l15.9,6.8l3.9,5.3l0,0l1.5,0.7l1.6,1l8.6,5.4l0.3,0.1l1.2,0.5l0,0l18.3,13.7l63.6-11.5l12.2-9l0.3-0.2l0.1-0.1
                                L197.8,159"/>
                        </g>
                    </g>
                </g>
            </g>
        </g>
    </g>
    <g>
        <g>
            <g>
                <polygon class="st0" points="131.9,171.5 154.2,142.5 175,146.6 175,169.8 131.9,194.7                "/>
            </g>
        </g>
        <g>
            <g>
                <g>
                    <polygon class="st0" points="164.8,156.7 169.6,153.9 169.6,150.1 164.8,152.9                    "/>
                </g>
            </g>
            <g>
                <g>
                    <polygon class="st0" points="164.8,156.4 169.4,153.8 169.4,150.3 164.8,153                  "/>
                </g>
            </g>
            <g>
                <g>
                    <polygon class="st0" points="164.8,156.2 169.2,153.6 169.2,150.4 164.8,152.9                    "/>
                </g>
            </g>
            <g>
                <g>
                    <polygon class="st0" points="164.8,156.1 169.1,153.6 169.1,150.4 164.8,152.9                    "/>
                </g>
            </g>
            <g>
                <g>
                    <polygon class="st0" points="167.9,151.1 168.1,151 168.1,154.2 167.9,154.3                  "/>
                </g>
            </g>
            <g>
                <g>
                    <polygon class="st0" points="168,151.1 168.2,151 168.2,154.2 168,154.4                  "/>
                </g>
            </g>
            <g>
                <g>
                    <polygon class="st0" points="166,152.2 166.2,152.1 166.2,155.3 166,155.4                    "/>
                </g>
            </g>
            <g>
                <g>
                    <polygon class="st0" points="166.1,152.2 166.3,152.1 166.3,155.4 166.1,155.5                    "/>
                </g>
            </g>
            <g>
                <g>
                    <polygon class="st0" points="164.8,154.5 166.1,153.7 166.1,153.5 164.8,154.3                    "/>
                </g>
            </g>
            <g>
                <g>
                    <polygon class="st0" points="166.3,153.6 167.9,152.6 167.9,152.4 166.3,153.4                    "/>
                </g>
            </g>
            <g>
                <g>
                    <polygon class="st0" points="164.8,154.5 169.2,152 169.2,151.8 164.8,154.3                  "/>
                </g>
            </g>
            <g>
                <g>
                    <polygon class="st0" points="164.8,156.4 164.8,156.7 169.6,153.9 169.4,153.8                    "/>
                </g>
            </g>
        </g>
        <g>
            <g>
                <g>
                    <polygon class="st0" points="159.1,159.7 164,156.9 164,153.2 159.1,156                  "/>
                </g>
            </g>
            <g>
                <g>
                    <polygon class="st0" points="159.1,159.5 163.7,156.8 163.7,153.3 159.1,156                  "/>
                </g>
            </g>
            <g>
                <g>
                    <polygon class="st0" points="159.1,159.2 163.6,156.7 163.6,153.4 159.1,156                  "/>
                </g>
            </g>
            <g>
                <g>
                    <polygon class="st0" points="159.1,159.2 163.5,156.6 163.5,153.4 159.1,156                  "/>
                </g>
            </g>
            <g>
                <g>
                    <polygon class="st0" points="162.3,154.1 162.5,154 162.5,157.2 162.3,157.3                  "/>
                </g>
            </g>
            <g>
                <g>
                    <polygon class="st0" points="162.4,154.1 162.6,154 162.6,157.3 162.4,157.4                  "/>
                </g>
            </g>
            <g>
                <g>
                    <polygon class="st0" points="160.4,155.2 160.6,155.1 160.6,158.3 160.4,158.4                    "/>
                </g>
            </g>
            <g>
                <g>
                    <polygon class="st0" points="160.4,155.2 160.6,155.1 160.6,158.4 160.4,158.5                    "/>
                </g>
            </g>
            <g>
                <g>
                    <polygon class="st0" points="159.1,157.5 160.4,156.7 160.4,156.5 159.1,157.3                    "/>
                </g>
            </g>
            <g>
                <g>
                    <polygon class="st0" points="160.6,156.6 162.3,155.6 162.3,155.4 160.6,156.4                    "/>
                </g>
            </g>
            <g>
                <g>
                    <polygon class="st0" points="159.1,157.5 163.6,155 163.6,154.8 159.1,157.3                  "/>
                </g>
            </g>
            <g>
                <g>
                    <polygon class="st0" points="159.1,159.5 159.1,159.7 164,156.9 163.7,156.8                  "/>
                </g>
            </g>
        </g>
        <g>
            <g>
                <g>
                    <polygon class="st0" points="153.1,163 157.9,160.3 157.9,156.5 153.1,159.3                  "/>
                </g>
            </g>
            <g>
                <g>
                    <polygon class="st0" points="153.1,162.8 157.7,160.1 157.7,156.7 153.1,159.3                    "/>
                </g>
            </g>
            <g>
                <g>
                    <polygon class="st0" points="153.1,162.6 157.5,160 157.5,156.8 153.1,159.3                  "/>
                </g>
            </g>
            <g>
                <g>
                    <polygon class="st0" points="153.1,162.5 157.4,160 157.4,156.8 153.1,159.3                  "/>
                </g>
            </g>
            <g>
                <g>
                    <polygon class="st0" points="156.2,157.5 156.4,157.4 156.4,160.5 156.2,160.7                    "/>
                </g>
            </g>
            <g>
                <g>
                    <polygon class="st0" points="156.3,157.4 156.5,157.3 156.5,160.6 156.3,160.7                    "/>
                </g>
            </g>
            <g>
                <g>
                    <polygon class="st0" points="154.3,158.6 154.5,158.5 154.5,161.7 154.3,161.8                    "/>
                </g>
            </g>
            <g>
                <g>
                    <polygon class="st0" points="154.4,158.6 154.5,158.5 154.5,161.7 154.4,161.9                    "/>
                </g>
            </g>
            <g>
                <g>
                    <polygon class="st0" points="153.1,160.8 154.4,160.1 154.4,159.9 153.1,160.6                    "/>
                </g>
            </g>
            <g>
                <g>
                    <polygon class="st0" points="154.5,160 156.2,159 156.2,158.8 154.5,159.8                    "/>
                </g>
            </g>
            <g>
                <g>
                    <polygon class="st0" points="153.1,160.9 157.5,158.3 157.5,158.1 153.1,160.7                    "/>
                </g>
            </g>
            <g>
                <g>
                    <polygon class="st0" points="153.1,162.8 153.1,163 157.9,160.3 157.7,160.1                  "/>
                </g>
            </g>
        </g>
        <g>
            <g>
                <g>
                    <polygon class="st0" points="146.6,166.6 151.4,163.8 151.4,160.1 146.6,162.9                    "/>
                </g>
            </g>
            <g>
                <g>
                    <polygon class="st0" points="146.6,166.4 151.2,163.7 151.2,160.3 146.6,162.9                    "/>
                </g>
            </g>
            <g>
                <g>
                    <polygon class="st0" points="146.6,166.2 151,163.6 151,160.3 146.6,162.9                    "/>
                </g>
            </g>
            <g>
                <g>
                    <polygon class="st0" points="146.6,166.1 151,163.6 151,160.4 146.6,162.9                    "/>
                </g>
            </g>
            <g>
                <g>
                    <polygon class="st0" points="149.8,161.1 150,161 150,164.1 149.8,164.3                  "/>
                </g>
            </g>
            <g>
                <g>
                    <polygon class="st0" points="149.8,161 150,160.9 150,164.2 149.8,164.3                  "/>
                </g>
            </g>
            <g>
                <g>
                    <polygon class="st0" points="147.8,162.2 148,162.1 148,165.3 147.8,165.4                    "/>
                </g>
            </g>
            <g>
                <g>
                    <polygon class="st0" points="147.9,162.2 148.1,162 148.1,165.3 147.9,165.4                  "/>
                </g>
            </g>
            <g>
                <g>
                    <polygon class="st0" points="146.6,164.4 147.9,163.7 147.9,163.5 146.6,164.2                    "/>
                </g>
            </g>
            <g>
                <g>
                    <polygon class="st0" points="148.1,163.6 149.8,162.6 149.8,162.4 148.1,163.4                    "/>
                </g>
            </g>
            <g>
                <g>
                    <polygon class="st0" points="146.6,164.5 151,161.9 151,161.7 146.6,164.3                    "/>
                </g>
            </g>
            <g>
                <g>
                    <polygon class="st0" points="146.6,166.4 146.6,166.6 151.4,163.8 151.2,163.7                    "/>
                </g>
            </g>
        </g>
        <g>
            <g>
                <g>
                    <polygon class="st0" points="139.5,170.7 144.3,167.9 144.3,164.2 139.5,167                  "/>
                </g>
            </g>
            <g>
                <g>
                    <polygon class="st0" points="139.5,170.5 144,167.8 144,164.3 139.5,167                  "/>
                </g>
            </g>
            <g>
                <g>
                    <polygon class="st0" points="139.5,170.3 143.9,167.7 143.9,164.4 139.5,167                  "/>
                </g>
            </g>
            <g>
                <g>
                    <polygon class="st0" points="139.5,170.2 143.8,167.7 143.8,164.5 139.5,167                  "/>
                </g>
            </g>
            <g>
                <g>
                    <polygon class="st0" points="142.6,165.2 142.8,165.1 142.8,168.2 142.6,168.4                    "/>
                </g>
            </g>
            <g>
                <g>
                    <polygon class="st0" points="142.7,165.1 142.9,165 142.9,168.3 142.7,168.4                  "/>
                </g>
            </g>
            <g>
                <g>
                    <polygon class="st0" points="140.7,166.3 140.9,166.2 140.9,169.4 140.7,169.5                    "/>
                </g>
            </g>
            <g>
                <g>
                    <polygon class="st0" points="140.7,166.3 140.9,166.1 140.9,169.4 140.7,169.5                    "/>
                </g>
            </g>
            <g>
                <g>
                    <polygon class="st0" points="139.5,168.5 140.7,167.8 140.7,167.6 139.5,168.3                    "/>
                </g>
            </g>
            <g>
                <g>
                    <polygon class="st0" points="140.9,167.7 142.6,166.7 142.6,166.5 140.9,167.5                    "/>
                </g>
            </g>
            <g>
                <g>
                    <polygon class="st0" points="139.5,168.6 143.9,166 143.9,165.8 139.5,168.4                  "/>
                </g>
            </g>
            <g>
                <g>
                    <polygon class="st0" points="139.5,170.5 139.5,170.7 144.3,167.9 144,167.8                  "/>
                </g>
            </g>
        </g>
        <g>
            <g>
                <g>
                    <g>
                        <polygon class="st0" points="99,110.1 154.5,141.9 175,146.3 119.5,114.9                         "/>
                    </g>
                </g>
                <g>
                    <g>
                        <polygon class="st0" points="175,146.3 154.2,141.7 154.2,142.5 175,147.1                        "/>
                    </g>
                </g>
                <g>
                    <g>
                        <polygon class="st0" points="99,110.1 154.2,141.7 131.8,171.3 76.6,139.4                        "/>
                    </g>
                </g>
                <g>
                    <g>
                        <polygon class="st0" points="131.8,172 154.2,142.5 154.2,141.7 131.8,171.3                      "/>
                    </g>
                </g>
            </g>
            <g>
                <g>
                    <polygon class="st0" points="76.6,139.4 131.8,171.3 131.8,172 76.6,140.2                    "/>
                </g>
            </g>
        </g>
        <g>
            <g>
                <g>
                    <polygon class="st0" points="172,171.5 160.5,178.1 159.1,178.9 157.6,179.8 157.6,164.8 172,156.5                    "/>
                </g>
            </g>
            <g>
                <g>
                    <polygon class="st0" points="159.1,165.7 170.6,159 170.6,172.3 159.1,178.9                  "/>
                </g>
            </g>
            <g>
                <g>
                    <polygon class="st0" points="159.1,178.9 170.6,172.3 170.6,172.1 159.1,178.7                    "/>
                </g>
            </g>
            <g>
                <g>
                    <polygon class="st0" points="170.2,172.5 170.6,172.3 170.6,159 170.2,159.2                  "/>
                </g>
            </g>
            <g>
                <g>
                    <polygon class="st0" points="159.1,166.5 170.2,160 170.2,159.2 159.1,165.7                  "/>
                </g>
            </g>
            <g>
                <g>
                    <path class="st0" d="M159,166.6v-1l0,0l11.2-6.5v1l0,0L159,166.6z M159.1,165.7v0.7l11-6.4v-0.7L159.1,165.7z"/>
                </g>
            </g>
            <g>
                <g>
                    <polygon class="st0" points="159.1,167.3 170.2,160.9 170.2,160 159.1,166.5                  "/>
                </g>
            </g>
            <g>
                <g>
                    <path class="st0" d="M159,167.4v-1l0,0l11.2-6.5v1l0,0L159,167.4z M159.1,166.5v0.7l11-6.4v-0.7L159.1,166.5z"/>
                </g>
            </g>
            <g>
                <g>
                    <polygon class="st0" points="159.1,168.2 170.2,161.7 170.2,160.9 159.1,167.3                    "/>
                </g>
            </g>
            <g>
                <g>
                    <path class="st0" d="M159,168.2v-1l0,0l11.2-6.5v1l0,0L159,168.2z M159.1,167.3v0.7l11-6.4v-0.7L159.1,167.3z"/>
                </g>
            </g>
            <g>
                <g>
                    <polygon class="st0" points="159.1,169 170.2,162.5 170.2,161.7 159.1,168.1                  "/>
                </g>
            </g>
            <g>
                <g>
                    <path class="st0" d="M159,169.1v-1l0,0l11.2-6.5v1l0,0L159,169.1z M159.1,168.2v0.7l11-6.4v-0.7L159.1,168.2z"/>
                </g>
            </g>
            <g>
                <g>
                    <polygon class="st0" points="159.1,169.8 170.2,163.4 170.2,162.5 159.1,169                  "/>
                </g>
            </g>
            <g>
                <g>
                    <path class="st0" d="M159,169.9v-1l0,0l11.2-6.5v1l0,0L159,169.9z M159.1,169v0.7l11-6.4v-0.7L159.1,169z"/>
                </g>
            </g>
            <g>
                <g>
                    <polygon class="st0" points="159.1,170.6 170.2,164.2 170.2,163.3 159.1,169.8                    "/>
                </g>
            </g>
            <g>
                <g>
                    <path class="st0" d="M159,170.7v-1l0,0l11.2-6.5v1l0,0L159,170.7z M159.1,169.8v0.7l11-6.4v-0.7L159.1,169.8z"/>
                </g>
            </g>
            <g>
                <g>
                    <polygon class="st0" points="159.1,171.5 170.2,165 170.2,164.2 159.1,170.6                  "/>
                </g>
            </g>
            <g>
                <g>
                    <path class="st0" d="M159,171.6v-1l0,0l11.2-6.5v1l0,0L159,171.6z M159.1,170.6v0.7l11-6.4v-0.7L159.1,170.6z"/>
                </g>
            </g>
            <g>
                <g>
                    <polygon class="st0" points="159.1,172.3 170.2,165.8 170.2,165 159.1,171.4                  "/>
                </g>
            </g>
            <g>
                <g>
                    <path class="st0" d="M159,172.4v-1l0,0l11.2-6.5v1l0,0L159,172.4z M159.1,171.5v0.7l11-6.4v-0.7L159.1,171.5z"/>
                </g>
            </g>
            <g>
                <g>
                    <polygon class="st0" points="159.1,173.1 170.2,166.7 170.2,165.8 159.1,172.3                    "/>
                </g>
            </g>
            <g>
                <g>
                    <path class="st0" d="M159,173.2v-1l0,0l11.2-6.5v1l0,0L159,173.2z M159.1,172.3v0.7l11-6.4v-0.7L159.1,172.3z"/>
                </g>
            </g>
            <g>
                <g>
                    <polygon class="st0" points="159.1,174 170.2,167.5 170.2,166.7 159.1,173.1                  "/>
                </g>
            </g>
            <g>
                <g>
                    <path class="st0" d="M159,174v-1l0,0l11.2-6.5v1l0,0L159,174z M159.1,173.1v0.7l11-6.4v-0.7L159.1,173.1z"/>
                </g>
            </g>
            <g>
                <g>
                    <polygon class="st0" points="159.1,174.8 170.2,168.3 170.2,167.5 159.1,174                  "/>
                </g>
            </g>
            <g>
                <g>
                    <path class="st0" d="M159,174.9v-1l0,0l11.2-6.5v1l0,0L159,174.9z M159.1,174v0.7l11-6.4v-0.7L159.1,174z"/>
                </g>
            </g>
            <g>
                <g>
                    <polygon class="st0" points="164.1,171.7 165.1,171.1 165.1,170.9 164.1,171.5                    "/>
                </g>
            </g>
            <g>
                <g>
                    <path class="st0" d="M164.1,171.8v-0.4l1.1-0.6v0.4L164.1,171.8z M164.2,171.5v0.1l0.9-0.5V171L164.2,171.5z"/>
                </g>
            </g>
            <g>
                <g>
                    <polygon class="st0" points="159.1,174.8 170.2,168.4 170.2,172.3 159.1,178.7                    "/>
                </g>
            </g>
            <g class="st3">
                <g>
                    <g>
                        <g>
                            <path class="st0" d="M159.1,174.8c7.9-3.7,7.8-4,8.5-4.1c0.8-0.1,2.7,1.6,2.7,1.6l-11.1,6.4V174.8z"/>
                        </g>
                    </g>
                </g>
            </g>
            <g class="st3">
                <g>
                    <defs>
                        <rect id="SVGID_1_" x="162.7" y="159.2" width="7.6" height="9.2"/>
                    </defs>
                    <use xlink:href="#SVGID_1_"  style="overflow:visible;fill:#FFFFFF;"/>
                    <clipPath id="SVGID_2_">
                        <use xlink:href="#SVGID_1_"  style="overflow:visible;"/>
                    </clipPath>
                    <g class="st4">
                        <g>
                            <path class="st0" d="M168.6,161.4c1.4,0.9,1.6,7,1.6,7v-9.2l-7.6,4.4C162.7,163.6,167.4,160.6,168.6,161.4"/>
                        </g>
                    </g>
                    <use xlink:href="#SVGID_1_"  style="overflow:visible;fill:none;stroke:#000000;stroke-miterlimit:10;"/>
                </g>
            </g>
            <g class="st5">
                <g>
                    <g>
                        <g>
                            <path class="st0" d="M160.3,166.1c-1,1-1.2,8.7-1.2,8.7v-9.1l6-3.5C165.1,162.2,161.4,165,160.3,166.1"/>
                        </g>
                    </g>
                </g>
            </g>
        </g>
        <g>
            <g>
                <g>
                    <polygon class="st0" points="149.1,184.7 137.6,191.4 136.2,192.2 134.7,193 134.7,178.1 149.1,169.8                  "/>
                </g>
            </g>
            <g>
                <g>
                    <polygon class="st0" points="136.2,178.9 147.7,172.3 147.7,185.5 136.2,192.2                    "/>
                </g>
            </g>
            <g>
                <g>
                    <polygon class="st0" points="136.2,192.2 147.7,185.6 147.7,185.3 136.2,192                  "/>
                </g>
            </g>
            <g>
                <g>
                    <polygon class="st0" points="147.3,185.7 147.7,185.6 147.7,172.3 147.3,172.5                    "/>
                </g>
            </g>
            <g>
                <g>
                    <polygon class="st0" points="136.2,179.8 147.3,173.3 147.3,172.5 136.2,178.9                    "/>
                </g>
            </g>
            <g>
                <g>
                    <path class="st0" d="M136.1,179.8v-1l0,0l11.2-6.5v1l0,0L136.1,179.8z M136.2,178.9v0.7l11-6.4v-0.7L136.2,178.9z"/>
                </g>
            </g>
            <g>
                <g>
                    <polygon class="st0" points="136.2,180.6 147.3,174.1 147.3,173.3 136.2,179.7                    "/>
                </g>
            </g>
            <g>
                <g>
                    <path class="st0" d="M136.1,180.7v-1l0,0l11.2-6.5v1l0,0L136.1,180.7z M136.2,179.8v0.7l11-6.4v-0.7L136.2,179.8z"/>
                </g>
            </g>
            <g>
                <g>
                    <polygon class="st0" points="136.2,181.4 147.3,175 147.3,174.1 136.2,180.6                  "/>
                </g>
            </g>
            <g>
                <g>
                    <path class="st0" d="M136.1,181.5v-1l0,0l11.2-6.5v1l0,0L136.1,181.5z M136.2,180.6v0.7l11-6.4v-0.7L136.2,180.6z"/>
                </g>
            </g>
            <g>
                <g>
                    <polygon class="st0" points="136.2,182.2 147.3,175.8 147.3,174.9 136.2,181.4                    "/>
                </g>
            </g>
            <g>
                <g>
                    <path class="st0" d="M136.1,182.3v-0.9l0,0l11.2-6.5v1l0,0L136.1,182.3z M136.2,181.4v0.7l11-6.4V175L136.2,181.4z"/>
                </g>
            </g>
            <g>
                <g>
                    <polygon class="st0" points="136.2,183.1 147.3,176.6 147.3,175.8 136.2,182.2                    "/>
                </g>
            </g>
            <g>
                <g>
                    <path class="st0" d="M136.1,183.2v-1l0,0l11.2-6.5v1l0,0L136.1,183.2z M136.2,182.3v0.7l11-6.4v-0.7L136.2,182.3z"/>
                </g>
            </g>
            <g>
                <g>
                    <polygon class="st0" points="136.2,183.9 147.3,177.4 147.3,176.6 136.2,183.1                    "/>
                </g>
            </g>
            <g>
                <g>
                    <path class="st0" d="M136.1,184v-1l0,0l11.2-6.5v1l0,0L136.1,184z M136.2,183.1v0.7l11-6.4v-0.7L136.2,183.1z"/>
                </g>
            </g>
            <g>
                <g>
                    <polygon class="st0" points="136.2,184.7 147.3,178.3 147.3,177.4 136.2,183.9                    "/>
                </g>
            </g>
            <g>
                <g>
                    <path class="st0" d="M136.1,184.8v-1l0,0l11.2-6.5v1l0,0L136.1,184.8z M136.2,183.9v0.7l11-6.4v-0.7L136.2,183.9z"/>
                </g>
            </g>
            <g>
                <g>
                    <polygon class="st0" points="136.2,185.6 147.3,179.1 147.3,178.3 136.2,184.7                    "/>
                </g>
            </g>
            <g>
                <g>
                    <path class="st0" d="M136.1,185.6v-1l0,0l11.2-6.5v1l0,0L136.1,185.6z M136.2,184.8v0.7l11-6.4v-0.7L136.2,184.8z"/>
                </g>
            </g>
            <g>
                <g>
                    <polygon class="st0" points="136.2,186.4 147.3,179.9 147.3,179.1 136.2,185.5                    "/>
                </g>
            </g>
            <g>
                <g>
                    <path class="st0" d="M136.1,186.5v-1l0,0l11.2-6.5v1l0,0L136.1,186.5z M136.2,185.6v0.7l11-6.4v-0.7L136.2,185.6z"/>
                </g>
            </g>
            <g>
                <g>
                    <polygon class="st0" points="136.2,187.2 147.3,180.8 147.3,179.9 136.2,186.4                    "/>
                </g>
            </g>
            <g>
                <g>
                    <path class="st0" d="M136.1,187.3v-1l0,0l11.2-6.5v1l0,0L136.1,187.3z M136.2,186.4v0.7l11-6.4V180L136.2,186.4z"/>
                </g>
            </g>
            <g>
                <g>
                    <polygon class="st0" points="136.2,188.1 147.3,181.6 147.3,180.8 136.2,187.2                    "/>
                </g>
            </g>
            <g>
                <g>
                    <path class="st0" d="M136.1,188.1v-1l0,0l11.2-6.5v1l0,0L136.1,188.1z M136.2,187.2v0.7l11-6.4v-0.7L136.2,187.2z"/>
                </g>
            </g>
            <g>
                <g>
                    <polygon class="st0" points="141.2,185 142.2,184.4 142.2,184.2 141.2,184.7                  "/>
                </g>
            </g>
            <g>
                <g>
                    <path class="st0" d="M141.2,185v-0.4l1.1-0.6v0.4L141.2,185z M141.3,184.8v0.1l0.9-0.5v-0.1L141.3,184.8z"/>
                </g>
            </g>
            <g>
                <g>
                    <polygon class="st0" points="136.2,188.1 147.3,181.6 147.3,185.6 136.2,192                  "/>
                </g>
            </g>
            <g class="st3">
                <g>
                    <g>
                        <g>
                            <path class="st0" d="M136.2,188c7.9-3.7,7.8-4,8.5-4.1c0.8-0.1,2.7,1.6,2.7,1.6l-11.1,6.4V188z"/>
                        </g>
                    </g>
                </g>
            </g>
            <g class="st3">
                <g>
                    <defs>
                        <rect id="SVGID_3_" x="139.8" y="172.5" width="7.6" height="9.2"/>
                    </defs>
                    <use xlink:href="#SVGID_3_"  style="overflow:visible;fill:#FFFFFF;"/>
                    <clipPath id="SVGID_4_">
                        <use xlink:href="#SVGID_3_"  style="overflow:visible;"/>
                    </clipPath>
                    <g class="st6">
                        <g>
                            <path class="st0" d="M145.7,174.6c1.4,0.9,1.6,7,1.6,7v-9.2l-7.6,4.4C139.8,176.8,144.5,173.8,145.7,174.6"/>
                        </g>
                    </g>
                    <use xlink:href="#SVGID_3_"  style="overflow:visible;fill:none;stroke:#000000;stroke-miterlimit:10;"/>
                </g>
            </g>
            <g class="st5">
                <g>
                    <g>
                        <g>
                            <path class="st0" d="M137.4,179.3c-1,1-1.2,8.7-1.2,8.7v-9.1l6-3.5C142.2,175.4,138.5,178.3,137.4,179.3"/>
                        </g>
                    </g>
                </g>
            </g>
        </g>
        <g>
            <g>
                <polygon class="st0" points="77.4,139.6 132.7,171.6 132.7,194.7 77.4,162.7              "/>
            </g>
        </g>
        <g>
            <g>
                <g>
                    <polygon class="st0" points="129.2,176.9 124.4,174.1 124.4,170.4 129.2,173.2                    "/>
                </g>
            </g>
            <g>
                <g>
                    <polygon class="st0" points="126.1,171.4 125.9,171.3 125.9,174.4 126.1,174.6                    "/>
                </g>
            </g>
            <g>
                <g>
                    <polygon class="st0" points="126,171.3 125.8,171.2 125.8,174.5 126,174.6                    "/>
                </g>
            </g>
            <g>
                <g>
                    <polygon class="st0" points="128,172.5 127.8,172.4 127.8,175.6 128,175.7                    "/>
                </g>
            </g>
            <g>
                <g>
                    <polygon class="st0" points="129.3,174.7 128,174 128,173.8 129.3,174.5                  "/>
                </g>
            </g>
            <g>
                <g>
                    <polygon class="st0" points="127.8,173.9 126.1,172.9 126.1,172.7 127.8,173.7                    "/>
                </g>
            </g>
            <g>
                <g>
                    <polygon class="st0" points="129.3,174.8 124.8,172.2 124.8,172 129.3,174.6                  "/>
                </g>
            </g>
            <g>
                <g>
                    <polygon class="st0" points="129.3,176.7 129.2,176.9 124.4,174.1 124.7,174                  "/>
                </g>
            </g>
        </g>
        <g>
            <g>
                <g>
                    <polygon class="st0" points="122.3,173 117.5,170.2 117.5,166.5 122.3,169.3                  "/>
                </g>
            </g>
            <g>
                <g>
                    <polygon class="st0" points="122.3,172.8 117.7,170.1 117.7,166.6 122.3,169.3                    "/>
                </g>
            </g>
            <g>
                <g>
                    <polygon class="st0" points="122.3,172.6 117.9,170 117.9,166.7 122.3,169.3                  "/>
                </g>
            </g>
            <g>
                <g>
                    <polygon class="st0" points="122.3,172.5 118,170 118,166.8 122.3,169.3                  "/>
                </g>
            </g>
            <g>
                <g>
                    <polygon class="st0" points="119.2,167.5 119,167.4 119,170.5 119.2,170.7                    "/>
                </g>
            </g>
            <g>
                <g>
                    <polygon class="st0" points="119.1,167.4 118.9,167.3 118.9,170.6 119.1,170.7                    "/>
                </g>
            </g>
            <g>
                <g>
                    <polygon class="st0" points="121.1,168.6 120.9,168.5 120.9,171.7 121.1,171.8                    "/>
                </g>
            </g>
            <g>
                <g>
                    <polygon class="st0" points="121,168.6 120.8,168.4 120.8,171.7 121,171.8                    "/>
                </g>
            </g>
            <g>
                <g>
                    <polygon class="st0" points="122.3,170.8 121,170.1 121,169.9 122.3,170.6                    "/>
                </g>
            </g>
            <g>
                <g>
                    <polygon class="st0" points="120.8,170 119.2,169 119.2,168.8 120.8,169.8                    "/>
                </g>
            </g>
            <g>
                <g>
                    <polygon class="st0" points="122.3,170.9 117.9,168.3 117.9,168.1 122.3,170.7                    "/>
                </g>
            </g>
            <g>
                <g>
                    <polygon class="st0" points="122.3,172.8 122.3,173 117.5,170.2 117.7,170.1                  "/>
                </g>
            </g>
        </g>
        <g>
            <g>
                <g>
                    <polygon class="st0" points="115.6,168.8 110.8,166 110.8,162.2 115.6,165                    "/>
                </g>
            </g>
            <g>
                <g>
                    <polygon class="st0" points="115.6,168.5 111,165.9 111,162.4 115.6,165.1                    "/>
                </g>
            </g>
            <g>
                <g>
                    <polygon class="st0" points="115.6,168.3 111.2,165.7 111.2,162.5 115.6,165                  "/>
                </g>
            </g>
            <g>
                <g>
                    <polygon class="st0" points="115.6,168.2 111.2,165.7 111.2,162.5 115.6,165                  "/>
                </g>
            </g>
            <g>
                <g>
                    <polygon class="st0" points="112.4,163.2 112.2,163.1 112.2,166.3 112.4,166.4                    "/>
                </g>
            </g>
            <g>
                <g>
                    <polygon class="st0" points="112.4,163.2 112.2,163.1 112.2,166.3 112.4,166.5                    "/>
                </g>
            </g>
            <g>
                <g>
                    <polygon class="st0" points="114.3,164.3 114.1,164.2 114.1,167.4 114.3,167.5                    "/>
                </g>
            </g>
            <g>
                <g>
                    <polygon class="st0" points="114.3,164.3 114.1,164.2 114.1,167.5 114.3,167.6                    "/>
                </g>
            </g>
            <g>
                <g>
                    <polygon class="st0" points="115.6,166.6 114.3,165.8 114.3,165.6 115.6,166.4                    "/>
                </g>
            </g>
            <g>
                <g>
                    <polygon class="st0" points="114.1,165.7 112.4,164.7 112.4,164.5 114.1,165.5                    "/>
                </g>
            </g>
            <g>
                <g>
                    <polygon class="st0" points="115.6,166.6 111.2,164.1 111.2,163.9 115.6,166.4                    "/>
                </g>
            </g>
            <g>
                <g>
                    <polygon class="st0" points="115.6,168.5 115.6,168.8 110.8,166 111,165.9                    "/>
                </g>
            </g>
        </g>
        <g>
            <g>
                <g>
                    <polygon class="st0" points="107.9,164.3 103.1,161.5 103.1,157.8 107.9,160.6                    "/>
                </g>
            </g>
            <g>
                <g>
                    <polygon class="st0" points="107.9,164.1 103.3,161.4 103.3,157.9 107.9,160.6                    "/>
                </g>
            </g>
            <g>
                <g>
                    <polygon class="st0" points="107.9,163.9 103.5,161.3 103.5,158 107.9,160.6                  "/>
                </g>
            </g>
            <g>
                <g>
                    <polygon class="st0" points="107.9,163.8 103.6,161.2 103.6,158.1 107.9,160.6                    "/>
                </g>
            </g>
            <g>
                <g>
                    <polygon class="st0" points="104.8,158.7 104.6,158.6 104.6,161.8 104.8,161.9                    "/>
                </g>
            </g>
            <g>
                <g>
                    <polygon class="st0" points="104.7,158.7 104.5,158.6 104.5,161.9 104.7,162                  "/>
                </g>
            </g>
            <g>
                <g>
                    <polygon class="st0" points="106.7,159.9 106.5,159.8 106.5,162.9 106.7,163.1                    "/>
                </g>
            </g>
            <g>
                <g>
                    <polygon class="st0" points="106.6,159.8 106.5,159.7 106.5,163 106.6,163.1                  "/>
                </g>
            </g>
            <g>
                <g>
                    <polygon class="st0" points="107.9,162.1 106.6,161.3 106.6,161.1 107.9,161.9                    "/>
                </g>
            </g>
            <g>
                <g>
                    <polygon class="st0" points="106.5,161.2 104.8,160.3 104.8,160.1 106.5,161                  "/>
                </g>
            </g>
            <g>
                <g>
                    <polygon class="st0" points="107.9,162.2 103.5,159.6 103.5,159.4 107.9,162                  "/>
                </g>
            </g>
            <g>
                <g>
                    <polygon class="st0" points="107.9,164.1 107.9,164.3 103.1,161.5 103.3,161.4                    "/>
                </g>
            </g>
        </g>
        <g>
            <g>
                <g>
                    <polygon class="st0" points="101.4,160.6 96.5,157.8 96.5,154 101.4,156.8                    "/>
                </g>
            </g>
            <g>
                <g>
                    <polygon class="st0" points="101.4,160.3 96.8,157.7 96.8,154.2 101.4,156.9                  "/>
                </g>
            </g>
            <g>
                <g>
                    <polygon class="st0" points="101.4,160.1 97,157.6 97,154.3 101.4,156.8                  "/>
                </g>
            </g>
            <g>
                <g>
                    <polygon class="st0" points="101.4,160 97,157.5 97,154.3 101.4,156.8                    "/>
                </g>
            </g>
            <g>
                <g>
                    <polygon class="st0" points="98.2,155 98,154.9 98,158.1 98.2,158.2                  "/>
                </g>
            </g>
            <g>
                <g>
                    <polygon class="st0" points="98.2,155 98,154.9 98,158.1 98.2,158.3                  "/>
                </g>
            </g>
            <g>
                <g>
                    <polygon class="st0" points="100.1,156.1 99.9,156 99.9,159.2 100.1,159.3                    "/>
                </g>
            </g>
            <g>
                <g>
                    <polygon class="st0" points="100.1,156.1 99.9,156 99.9,159.3 100.1,159.4                    "/>
                </g>
            </g>
            <g>
                <g>
                    <polygon class="st0" points="101.4,158.4 100.1,157.6 100.1,157.4 101.4,158.2                    "/>
                </g>
            </g>
            <g>
                <g>
                    <polygon class="st0" points="99.9,157.5 98.2,156.5 98.2,156.3 99.9,157.3                    "/>
                </g>
            </g>
            <g>
                <g>
                    <polygon class="st0" points="101.4,158.4 97,155.9 97,155.7 101.4,158.2                  "/>
                </g>
            </g>
            <g>
                <g>
                    <polygon class="st0" points="101.4,160.3 101.4,160.6 96.5,157.8 96.8,157.7                  "/>
                </g>
            </g>
        </g>
        <g>
            <g>
                <g>
                    <polygon class="st0" points="94.5,156.9 89.6,154.1 89.6,150.3 94.5,153.1                    "/>
                </g>
            </g>
            <g>
                <g>
                    <polygon class="st0" points="94.5,156.6 89.9,154 89.9,150.5 94.5,153.1                  "/>
                </g>
            </g>
            <g>
                <g>
                    <polygon class="st0" points="94.5,156.4 90.1,153.8 90.1,150.6 94.5,153.1                    "/>
                </g>
            </g>
            <g>
                <g>
                    <polygon class="st0" points="94.5,156.3 90.1,153.8 90.1,150.6 94.5,153.1                    "/>
                </g>
            </g>
            <g>
                <g>
                    <polygon class="st0" points="91.3,151.3 91.1,151.2 91.1,154.4 91.3,154.5                    "/>
                </g>
            </g>
            <g>
                <g>
                    <polygon class="st0" points="91.3,151.3 91.1,151.2 91.1,154.4 91.3,154.6                    "/>
                </g>
            </g>
            <g>
                <g>
                    <polygon class="st0" points="93.2,152.4 93,152.3 93,155.5 93.2,155.6                    "/>
                </g>
            </g>
            <g>
                <g>
                    <polygon class="st0" points="93.2,152.4 93,152.3 93,155.5 93.2,155.7                    "/>
                </g>
            </g>
            <g>
                <g>
                    <polygon class="st0" points="94.5,154.6 93.2,153.9 93.2,153.7 94.5,154.4                    "/>
                </g>
            </g>
            <g>
                <g>
                    <polygon class="st0" points="93,153.8 91.3,152.8 91.3,152.6 93,153.6                    "/>
                </g>
            </g>
            <g>
                <g>
                    <polygon class="st0" points="94.5,154.7 90.1,152.2 90.1,152 94.5,154.5                  "/>
                </g>
            </g>
            <g>
                <g>
                    <polygon class="st0" points="94.5,156.6 94.5,156.9 89.6,154.1 89.9,154                  "/>
                </g>
            </g>
        </g>
        <g>
            <g>
                <g>
                    <polygon class="st0" points="87.3,152.8 82.4,150 82.4,146.3 87.3,149.1                  "/>
                </g>
            </g>
            <g>
                <g>
                    <polygon class="st0" points="87.3,152.6 82.7,149.9 82.7,146.4 87.3,149.1                    "/>
                </g>
            </g>
            <g>
                <g>
                    <polygon class="st0" points="87.3,152.4 82.9,149.8 82.9,146.5 87.3,149.1                    "/>
                </g>
            </g>
            <g>
                <g>
                    <polygon class="st0" points="87.3,152.3 82.9,149.8 82.9,146.6 87.3,149.1                    "/>
                </g>
            </g>
            <g>
                <g>
                    <polygon class="st0" points="84.1,147.3 83.9,147.1 83.9,150.3 84.1,150.5                    "/>
                </g>
            </g>
            <g>
                <g>
                    <polygon class="st0" points="84.1,147.2 83.9,147.1 83.9,150.4 84.1,150.5                    "/>
                </g>
            </g>
            <g>
                <g>
                    <polygon class="st0" points="86,148.4 85.8,148.3 85.8,151.4 86,151.6                    "/>
                </g>
            </g>
            <g>
                <g>
                    <polygon class="st0" points="86,148.4 85.8,148.2 85.8,151.5 86,151.6                    "/>
                </g>
            </g>
            <g>
                <g>
                    <polygon class="st0" points="87.3,150.6 86,149.9 86,149.7 87.3,150.4                    "/>
                </g>
            </g>
            <g>
                <g>
                    <polygon class="st0" points="85.8,149.8 84.1,148.8 84.1,148.6 85.8,149.6                    "/>
                </g>
            </g>
            <g>
                <g>
                    <polygon class="st0" points="87.3,150.7 82.9,148.1 82.9,147.9 87.3,150.5                    "/>
                </g>
            </g>
            <g>
                <g>
                    <polygon class="st0" points="87.3,152.6 87.3,152.8 82.4,150 82.7,149.9                  "/>
                </g>
            </g>
        </g>
    </g>
</g>
<g>
    <g class="st1">
        <path d="M72.7,173.1c0.6-0.6,1.3-1.2,2.3-1.7c4.1-2.1,10.3-2,13.8,0.2c1.9,1.2,2.6,2.8,2.2,4.3c1.8,0.2,3.4,0.8,4.7,1.6
            c3.5,2.2,2.9,5.8-1.2,7.9c-0.6,0.3-1.3,0.6-2.1,0.8c0.5,1.8-0.7,3.9-3.4,5.2c-4.1,2.1-10.3,2-13.8-0.2c-0.3-0.2-0.6-0.4-0.8-0.7
            c-3.6,1.7-8.4,1.8-11.9,0.4l-7.3,3.7c-0.1,0-0.2,0.1-0.2,0.1c-0.7,0.2-1.7,0-2.5-0.4c-0.8-0.5-1-1.3-0.3-1.6l7.4-3.8
            c-1.8-2.1-0.9-4.7,2.2-6.5c-0.2-0.1-0.5-0.3-0.7-0.4c-3.5-2.2-2.9-5.8,1.2-7.9C65.3,172.7,69.4,172.4,72.7,173.1z"/>
    </g>
    <g>
        <path class="st0" d="M50.3,179.5h5.9l0,14.5H56c-1.4-5-3.1-9.7-5.8-13.3L50.3,179.5z"/>
    </g>
    <g>
        <polyline class="st0" points="50.3,180.8 50,165.5 55.9,165.5 56.2,194.1         "/>
    </g>
    <g>
        <path class="st0" d="M50.3,180.8c0.8,1.1,4.6-0.5,5.7,1.4c0.4,5.7,2.2,12.4-2.1,13.5l-3.6-1.6L50.3,180.8z"/>
    </g>
    <g>
        <path class="st0" d="M56.2,194.1c0,0.1,0,0.2-0.1,0.3c-0.1-0.5-0.3-0.9-0.4-1.4C56,193.3,56.2,193.7,56.2,194.1z"/>
    </g>
    <g>
        <path class="st0" d="M53.2,192.1c1.1,0,2,0.4,2.5,0.9c0.1,0.5,0.3,0.9,0.4,1.4c-0.2,0.9-1.4,1.6-2.9,1.6c-1.6,0-3-0.9-3-2
            C50.3,193,51.6,192.1,53.2,192.1z"/>
    </g>
    <g>
        <g>

                <ellipse transform="matrix(0.9874 -0.1585 0.1585 0.9874 -24.9784 10.4775)" class="st0" cx="53.2" cy="161.8" rx="0.2" ry="0.5"/>
        </g>
        <g>
            <circle class="st0" cx="53.5" cy="170.2" r="12.3"/>
        </g>
        <g>

                <ellipse transform="matrix(7.918745e-02 -0.9969 0.9969 7.918745e-02 -127.1403 213.8572)" class="st0" cx="52.2" cy="175.7" rx="0.5" ry="0.2"/>
        </g>
        <g>

                <ellipse transform="matrix(0.9951 -9.905565e-02 9.905565e-02 0.9951 -16.3961 6.039)" class="st0" cx="52.6" cy="168.1" rx="0.2" ry="0.5"/>
        </g>
        <g>

                <ellipse transform="matrix(0.9957 -9.257697e-02 9.257697e-02 0.9957 -14.7952 5.6656)" class="st0" cx="53.7" cy="162.3" rx="0.2" ry="0.5"/>
        </g>
        <g>

                <ellipse transform="matrix(0.9872 -0.1593 0.1593 0.9872 -26.6504 11.142)" class="st0" cx="56.2" cy="171.8" rx="0.2" ry="0.5"/>
        </g>
        <g>

                <ellipse transform="matrix(0.9871 -0.1599 0.1599 0.9871 -25.6951 11.3254)" class="st0" cx="57.5" cy="165.4" rx="0.2" ry="0.5"/>
        </g>
        <g>

                <ellipse transform="matrix(0.3779 -0.9258 0.9258 0.3779 -130.3423 163.3114)" class="st0" cx="56.4" cy="178.6" rx="0.5" ry="0.2"/>
        </g>
        <g>

                <ellipse transform="matrix(0.2232 -0.9748 0.9748 0.2232 -121.6857 193.5573)" class="st0" cx="60.6" cy="173.1" rx="0.5" ry="0.2"/>
        </g>
        <g>

                <ellipse transform="matrix(7.478581e-02 -0.9972 0.9972 7.478581e-02 -126.7126 207.7644)" class="st0" cx="48.6" cy="172.2" rx="0.5" ry="0.2"/>
        </g>
        <g>

                <ellipse transform="matrix(7.532676e-02 -0.9972 0.9972 7.532676e-02 -118.2561 201.3093)" class="st0" cx="49.4" cy="164.4" rx="0.5" ry="0.2"/>
        </g>
        <g>

                <ellipse transform="matrix(7.539944e-02 -0.9972 0.9972 7.539944e-02 -127.3523 199.8895)" class="st0" cx="44.1" cy="168.6" rx="0.5" ry="0.2"/>
        </g>
        <g>

                <ellipse transform="matrix(7.496000e-02 -0.9972 0.9972 7.496000e-02 -133.8901 212.9608)" class="st0" cx="47.8" cy="178.6" rx="0.5" ry="0.2"/>
        </g>
        <g>
            <ellipse transform="matrix(0.913 -0.4079 0.4079 0.913 -62.8128 40.6974)" class="st0" cx="64" cy="167.7" rx="0.2" ry="0.5"/>
        </g>
        <g>

                <ellipse transform="matrix(0.2808 -0.9598 0.9598 0.2808 -126.7046 187.2561)" class="st0" cx="61.6" cy="178.2" rx="0.5" ry="0.2"/>
        </g>
        <g>

                <ellipse transform="matrix(0.2781 -0.9606 0.9606 0.2781 -117.8415 185.8109)" class="st0" cx="64.7" cy="171.3" rx="0.5" ry="0.2"/>
        </g>
        <g>

                <ellipse transform="matrix(0.4347 -0.9006 0.9006 0.4347 -111.6495 144.3182)" class="st0" cx="59.1" cy="161.1" rx="0.2" ry="0.5"/>
        </g>
        <g>
            <ellipse transform="matrix(0.884 -0.4675 0.4675 0.884 -69.2309 41.3037)" class="st0" cx="48.6" cy="160.1" rx="0.5" ry="0.2"/>
        </g>
    </g>
    <g>
        <g>

                <ellipse transform="matrix(0.9874 -0.1585 0.1585 0.9874 -23.3038 8.1859)" class="st0" cx="39.7" cy="150.2" rx="0.2" ry="0.5"/>
        </g>
        <g>
            <circle class="st0" cx="39.9" cy="158.5" r="12.3"/>
        </g>
        <g>
            <circle class="st0" cx="38.7" cy="159.3" r="10.8"/>
        </g>
        <g>

                <ellipse transform="matrix(7.928552e-02 -0.9969 0.9969 7.928552e-02 -128.0202 189.6824)" class="st0" cx="38.7" cy="164.1" rx="0.5" ry="0.2"/>
        </g>
        <g>

                <ellipse transform="matrix(0.9953 -9.640443e-02 9.640443e-02 0.9953 -14.9083 4.4985)" class="st0" cx="39.1" cy="156.5" rx="0.2" ry="0.5"/>
        </g>
        <g>

                <ellipse transform="matrix(0.9956 -9.325254e-02 9.325254e-02 0.9956 -13.8782 4.4012)" class="st0" cx="40.2" cy="150.7" rx="0.2" ry="0.5"/>
        </g>
        <g>

                <ellipse transform="matrix(0.9868 -0.1618 0.1618 0.9868 -25.3468 9.0074)" class="st0" cx="42.6" cy="160.2" rx="0.2" ry="0.5"/>
        </g>
        <g>
            <ellipse transform="matrix(0.9873 -0.1588 0.1588 0.9873 -23.8553 8.9413)" class="st0" cx="44" cy="153.8" rx="0.2" ry="0.5"/>
        </g>
        <g>

                <ellipse transform="matrix(0.3807 -0.9247 0.9247 0.3807 -127.9345 143.0573)" class="st0" cx="42.8" cy="167" rx="0.5" ry="0.2"/>
        </g>
        <g>

                <ellipse transform="matrix(0.2218 -0.9751 0.9751 0.2218 -120.8611 171.5951)" class="st0" cx="47.1" cy="161.5" rx="0.5" ry="0.2"/>
        </g>
        <g>

                <ellipse transform="matrix(7.777313e-02 -0.997 0.997 7.777313e-02 -127.7151 183.0607)" class="st0" cx="35.1" cy="160.6" rx="0.5" ry="0.2"/>
        </g>
        <g>

                <ellipse transform="matrix(7.270800e-02 -0.9974 0.9974 7.270800e-02 -119.1164 177.5092)" class="st0" cx="35.9" cy="152.8" rx="0.5" ry="0.2"/>
        </g>
        <g>

                <ellipse transform="matrix(7.528598e-02 -0.9972 0.9972 7.528598e-02 -128.274 175.7019)" class="st0" cx="30.6" cy="157" rx="0.5" ry="0.2"/>
        </g>
        <g>

                <ellipse transform="matrix(7.652929e-02 -0.9971 0.9971 7.652929e-02 -134.8561 188.4812)" class="st0" cx="34.3" cy="167" rx="0.5" ry="0.2"/>
        </g>
        <g>

                <ellipse transform="matrix(0.9102 -0.4142 0.4142 0.9102 -60.0987 34.9409)" class="st0" cx="50.5" cy="156.1" rx="0.2" ry="0.5"/>
        </g>
        <g>

                <ellipse transform="matrix(0.2813 -0.9596 0.9596 0.2813 -125.2868 165.843)" class="st0" cx="48.1" cy="166.6" rx="0.5" ry="0.2"/>
        </g>
        <g>

                <ellipse transform="matrix(0.278 -0.9606 0.9606 0.278 -116.4526 164.4529)" class="st0" cx="51.2" cy="159.7" rx="0.5" ry="0.2"/>
        </g>
        <g>

                <ellipse transform="matrix(0.4332 -0.9013 0.9013 0.4332 -108.8772 125.841)" class="st0" cx="45.6" cy="149.5" rx="0.2" ry="0.5"/>
        </g>
        <g>

                <ellipse transform="matrix(0.8854 -0.4648 0.4648 0.8854 -65.0145 33.3256)" class="st0" cx="35.1" cy="148.5" rx="0.5" ry="0.2"/>
        </g>
    </g>
    <g>
        <g>

                <ellipse transform="matrix(0.9872 -0.1597 0.1597 0.9872 -23.1341 12.6779)" class="st0" cx="67.3" cy="150.2" rx="0.2" ry="0.5"/>
        </g>
        <g>
            <circle class="st0" cx="67.6" cy="158.5" r="12.3"/>
        </g>
        <g>

                <ellipse transform="matrix(7.889005e-02 -0.9969 0.9969 7.889005e-02 -102.5826 217.2677)" class="st0" cx="66.3" cy="164.1" rx="0.5" ry="0.2"/>
        </g>
        <g>

                <ellipse transform="matrix(0.9954 -9.624410e-02 9.624410e-02 0.9954 -14.7556 7.1468)" class="st0" cx="66.7" cy="156.5" rx="0.2" ry="0.5"/>
        </g>
        <g>

                <ellipse transform="matrix(0.9956 -9.370551e-02 9.370551e-02 0.9956 -13.8233 7.0126)" class="st0" cx="67.8" cy="150.7" rx="0.2" ry="0.5"/>
        </g>
        <g>
            <ellipse transform="matrix(0.987 -0.161 0.161 0.987 -24.8642 13.3954)" class="st0" cx="70.3" cy="160.2" rx="0.2" ry="0.5"/>
        </g>
        <g>
            <ellipse transform="matrix(0.9873 -0.159 0.159 0.9873 -23.5426 13.3495)" class="st0" cx="71.6" cy="153.8" rx="0.2" ry="0.5"/>
        </g>
        <g>

                <ellipse transform="matrix(0.3807 -0.9247 0.9247 0.3807 -110.8389 168.5839)" class="st0" cx="70.4" cy="167" rx="0.5" ry="0.2"/>
        </g>
        <g>

                <ellipse transform="matrix(0.2226 -0.9749 0.9749 0.2226 -99.4059 198.384)" class="st0" cx="74.7" cy="161.5" rx="0.5" ry="0.2"/>
        </g>
        <g>

                <ellipse transform="matrix(7.739805e-02 -0.997 0.997 7.739805e-02 -102.2365 210.646)" class="st0" cx="62.7" cy="160.6" rx="0.5" ry="0.2"/>
        </g>
        <g>

                <ellipse transform="matrix(7.295123e-02 -0.9973 0.9973 7.295123e-02 -93.5318 205.0022)" class="st0" cx="63.5" cy="152.8" rx="0.5" ry="0.2"/>
        </g>
        <g>

                <ellipse transform="matrix(7.516032e-02 -0.9972 0.9972 7.516032e-02 -102.7425 203.2476)" class="st0" cx="58.2" cy="157" rx="0.5" ry="0.2"/>
        </g>
        <g>

                <ellipse transform="matrix(7.579206e-02 -0.9971 0.9971 7.579206e-02 -109.3264 216.1329)" class="st0" cx="61.9" cy="167" rx="0.5" ry="0.2"/>
        </g>
        <g>
            <ellipse transform="matrix(0.911 -0.4124 0.4124 0.911 -57.3993 46.1031)" class="st0" cx="78.1" cy="156.1" rx="0.2" ry="0.5"/>
        </g>
        <g>

                <ellipse transform="matrix(0.2831 -0.9591 0.9591 0.2831 -105.4945 191.9996)" class="st0" cx="75.7" cy="166.6" rx="0.5" ry="0.2"/>
        </g>
        <g>

                <ellipse transform="matrix(0.2768 -0.9609 0.9609 0.2768 -96.4804 191.2052)" class="st0" cx="78.8" cy="159.7" rx="0.5" ry="0.2"/>
        </g>
        <g>

                <ellipse transform="matrix(0.4318 -0.9019 0.9019 0.4318 -93.2292 150.97)" class="st0" cx="73.2" cy="149.5" rx="0.2" ry="0.5"/>
        </g>
        <g>
            <ellipse transform="matrix(0.882 -0.4712 0.4712 0.882 -62.5904 47.0602)" class="st0" cx="62.7" cy="148.5" rx="0.5" ry="0.2"/>
        </g>
    </g>
    <g>
        <g>
            <ellipse transform="matrix(0.987 -0.1606 0.1606 0.987 -21.1447 11.6864)" class="st0" cx="61.7" cy="136.7" rx="0.2" ry="0.5"/>
        </g>
        <g>
            <circle class="st0" cx="62" cy="145" r="12.3"/>
        </g>
        <g>

                <ellipse transform="matrix(8.068132e-02 -0.9967 0.9967 8.068132e-02 -94.2805 198.9995)" class="st0" cx="60.7" cy="150.6" rx="0.5" ry="0.2"/>
        </g>
        <g>
            <ellipse transform="matrix(0.9949 -0.1004 0.1004 0.9949 -14.0452 6.8623)" class="st0" cx="61.2" cy="143" rx="0.2" ry="0.5"/>
        </g>
        <g>

                <ellipse transform="matrix(0.9955 -9.505434e-02 9.505434e-02 0.9955 -12.7564 6.5354)" class="st0" cx="62.2" cy="137.2" rx="0.2" ry="0.5"/>
        </g>
        <g>

                <ellipse transform="matrix(0.9867 -0.1623 0.1623 0.9867 -22.9418 12.4472)" class="st0" cx="64.7" cy="146.6" rx="0.2" ry="0.5"/>
        </g>
        <g>

                <ellipse transform="matrix(0.9867 -0.1623 0.1623 0.9867 -21.8842 12.5871)" class="st0" cx="66.1" cy="140.2" rx="0.2" ry="0.5"/>
        </g>
        <g>

                <ellipse transform="matrix(0.3792 -0.9253 0.9253 0.3792 -101.7513 155.3611)" class="st0" cx="64.9" cy="153.5" rx="0.5" ry="0.2"/>
        </g>
        <g>

                <ellipse transform="matrix(0.2238 -0.9746 0.9746 0.2238 -90.5633 182.2483)" class="st0" cx="69.1" cy="148" rx="0.5" ry="0.2"/>
        </g>
        <g>

                <ellipse transform="matrix(7.401259e-02 -0.9973 0.9973 7.401259e-02 -93.698 193.1478)" class="st0" cx="57.2" cy="147" rx="0.5" ry="0.2"/>
        </g>
        <g>

                <ellipse transform="matrix(7.599248e-02 -0.9971 0.9971 7.599248e-02 -85.3135 186.4938)" class="st0" cx="58" cy="139.3" rx="0.5" ry="0.2"/>
        </g>
        <g>

                <ellipse transform="matrix(7.682449e-02 -0.997 0.997 7.682449e-02 -94.4386 184.9617)" class="st0" cx="52.7" cy="143.5" rx="0.5" ry="0.2"/>
        </g>
        <g>

                <ellipse transform="matrix(7.409297e-02 -0.9973 0.9973 7.409297e-02 -100.8739 198.369)" class="st0" cx="56.4" cy="153.5" rx="0.5" ry="0.2"/>
        </g>
        <g>

                <ellipse transform="matrix(0.9116 -0.4112 0.4112 0.9116 -52.1804 42.4512)" class="st0" cx="72.6" cy="142.5" rx="0.2" ry="0.5"/>
        </g>
        <g>

                <ellipse transform="matrix(0.2793 -0.9602 0.9602 0.2793 -96.3894 177.6405)" class="st0" cx="70.1" cy="153" rx="0.5" ry="0.2"/>
        </g>
        <g>

                <ellipse transform="matrix(0.2771 -0.9608 0.9608 0.2771 -87.4909 176.0387)" class="st0" cx="73.2" cy="146.2" rx="0.5" ry="0.2"/>
        </g>
        <g>

                <ellipse transform="matrix(0.4306 -0.9026 0.9026 0.4306 -84.1656 138.5004)" class="st0" cx="67.7" cy="136" rx="0.2" ry="0.5"/>
        </g>
        <g>
            <ellipse transform="matrix(0.8815 -0.4721 0.4721 0.8815 -56.9662 42.9768)" class="st0" cx="57.2" cy="135" rx="0.5" ry="0.2"/>
        </g>
    </g>
    <g>
        <g>
            <ellipse transform="matrix(0.987 -0.161 0.161 0.987 -21.068 9.1358)" class="st0" cx="45.8" cy="134.6" rx="0.2" ry="0.5"/>
        </g>
        <g>
            <circle class="st0" cx="46.1" cy="142.9" r="12.3"/>
        </g>
        <g>

                <ellipse transform="matrix(7.931954e-02 -0.9968 0.9968 7.931954e-02 -106.7556 181.43)" class="st0" cx="44.8" cy="148.5" rx="0.5" ry="0.2"/>
        </g>
        <g>

                <ellipse transform="matrix(0.9951 -9.839918e-02 9.839918e-02 0.9951 -13.6444 5.1383)" class="st0" cx="45.3" cy="140.9" rx="0.2" ry="0.5"/>
        </g>
        <g>

                <ellipse transform="matrix(0.9955 -9.474590e-02 9.474590e-02 0.9955 -12.5884 4.9965)" class="st0" cx="46.3" cy="135.1" rx="0.2" ry="0.5"/>
        </g>
        <g>

                <ellipse transform="matrix(0.9868 -0.1617 0.1617 0.9868 -22.7329 9.7972)" class="st0" cx="48.8" cy="144.5" rx="0.2" ry="0.5"/>
        </g>
        <g>

                <ellipse transform="matrix(0.9868 -0.1618 0.1618 0.9868 -21.6879 9.9421)" class="st0" cx="50.2" cy="138.1" rx="0.2" ry="0.5"/>
        </g>
        <g>

                <ellipse transform="matrix(0.3805 -0.9248 0.9248 0.3805 -109.659 139.1145)" class="st0" cx="49" cy="151.4" rx="0.5" ry="0.2"/>
        </g>
        <g>

                <ellipse transform="matrix(0.2206 -0.9754 0.9754 0.2206 -100.7894 165.6384)" class="st0" cx="53.2" cy="145.9" rx="0.5" ry="0.2"/>
        </g>
        <g>

                <ellipse transform="matrix(7.658167e-02 -0.9971 0.9971 7.658167e-02 -106.402 174.9681)" class="st0" cx="41.3" cy="144.9" rx="0.5" ry="0.2"/>
        </g>
        <g>

                <ellipse transform="matrix(7.682449e-02 -0.997 0.997 7.682449e-02 -97.9333 168.5853)" class="st0" cx="42.1" cy="137.2" rx="0.5" ry="0.2"/>
        </g>
        <g>

                <ellipse transform="matrix(7.586586e-02 -0.9971 0.9971 7.586586e-02 -106.995 167.3105)" class="st0" cx="36.8" cy="141.4" rx="0.5" ry="0.2"/>
        </g>
        <g>

                <ellipse transform="matrix(7.562643e-02 -0.9971 0.9971 7.562643e-02 -113.5436 180.3322)" class="st0" cx="40.5" cy="151.4" rx="0.5" ry="0.2"/>
        </g>
        <g>

                <ellipse transform="matrix(0.9114 -0.4116 0.4116 0.9114 -52.7721 35.7804)" class="st0" cx="56.7" cy="140.4" rx="0.2" ry="0.5"/>
        </g>
        <g>

                <ellipse transform="matrix(0.2793 -0.9602 0.9602 0.2793 -105.8292 160.8615)" class="st0" cx="54.2" cy="150.9" rx="0.5" ry="0.2"/>
        </g>
        <g>

                <ellipse transform="matrix(0.2778 -0.9607 0.9607 0.2778 -96.9753 159.1369)" class="st0" cx="57.3" cy="144.1" rx="0.5" ry="0.2"/>
        </g>
        <g>

                <ellipse transform="matrix(0.4355 -0.9002 0.9002 0.4355 -91.2607 122.1791)" class="st0" cx="51.8" cy="133.9" rx="0.2" ry="0.5"/>
        </g>
        <g>

                <ellipse transform="matrix(0.8841 -0.4673 0.4673 0.8841 -57.3247 34.6853)" class="st0" cx="41.3" cy="132.9" rx="0.5" ry="0.2"/>
        </g>
    </g>
    <g>
        <g>

                <ellipse transform="matrix(0.9867 -0.1623 0.1623 0.9867 -23.9906 10.1119)" class="st0" cx="49.9" cy="151.9" rx="0.2" ry="0.5"/>
        </g>
        <g>
            <circle class="st0" cx="50.2" cy="160.2" r="12.3"/>
        </g>
        <g>

                <ellipse transform="matrix(8.015090e-02 -0.9968 0.9968 8.015090e-02 -120.3061 201.2512)" class="st0" cx="48.9" cy="165.8" rx="0.5" ry="0.2"/>
        </g>
        <g>

                <ellipse transform="matrix(0.9951 -9.889071e-02 9.889071e-02 0.9951 -15.4025 5.6524)" class="st0" cx="49.3" cy="158.2" rx="0.2" ry="0.5"/>
        </g>
        <g>

                <ellipse transform="matrix(0.9958 -9.174550e-02 9.174550e-02 0.9958 -13.7664 5.2637)" class="st0" cx="50.4" cy="152.4" rx="0.2" ry="0.5"/>
        </g>
        <g>
            <ellipse transform="matrix(0.987 -0.1607 0.1607 0.987 -25.3154 10.5956)" class="st0" cx="52.9" cy="161.8" rx="0.2" ry="0.5"/>
        </g>
        <g>
            <ellipse transform="matrix(0.9872 -0.1596 0.1596 0.9872 -24.11 10.649)" class="st0" cx="54.2" cy="155.4" rx="0.2" ry="0.5"/>
        </g>
        <g>

                <ellipse transform="matrix(0.3773 -0.9261 0.9261 0.3773 -123.2029 154.1801)" class="st0" cx="53.1" cy="168.7" rx="0.5" ry="0.2"/>
        </g>
        <g>

                <ellipse transform="matrix(0.225 -0.9744 0.9744 0.225 -114.5985 182.2893)" class="st0" cx="57.3" cy="163.2" rx="0.5" ry="0.2"/>
        </g>
        <g>

                <ellipse transform="matrix(7.503507e-02 -0.9972 0.9972 7.503507e-02 -119.8644 195.2349)" class="st0" cx="45.3" cy="162.2" rx="0.5" ry="0.2"/>
        </g>
        <g>

                <ellipse transform="matrix(7.628621e-02 -0.9971 0.9971 7.628621e-02 -111.4298 188.6765)" class="st0" cx="46.1" cy="154.5" rx="0.5" ry="0.2"/>
        </g>
        <g>

                <ellipse transform="matrix(7.875079e-02 -0.9969 0.9969 7.875079e-02 -120.5892 186.8666)" class="st0" cx="40.8" cy="158.7" rx="0.5" ry="0.2"/>
        </g>
        <g>

                <ellipse transform="matrix(7.562643e-02 -0.9971 0.9971 7.562643e-02 -127.0547 200.3598)" class="st0" cx="44.5" cy="168.7" rx="0.5" ry="0.2"/>
        </g>
        <g>

                <ellipse transform="matrix(0.9108 -0.4129 0.4129 0.9108 -59.7058 39.1533)" class="st0" cx="60.7" cy="157.7" rx="0.2" ry="0.5"/>
        </g>
        <g>

                <ellipse transform="matrix(0.2796 -0.9601 0.9601 0.2796 -119.5286 177.1621)" class="st0" cx="58.3" cy="168.2" rx="0.5" ry="0.2"/>
        </g>
        <g>

                <ellipse transform="matrix(0.2773 -0.9608 0.9608 0.2773 -110.6664 175.5994)" class="st0" cx="61.4" cy="161.4" rx="0.5" ry="0.2"/>
        </g>
        <g>

                <ellipse transform="matrix(0.4339 -0.901 0.901 0.4339 -104.577 135.8634)" class="st0" cx="55.8" cy="151.2" rx="0.2" ry="0.5"/>
        </g>
        <g>

                <ellipse transform="matrix(0.8863 -0.4631 0.4631 0.8863 -64.4084 38.058)" class="st0" cx="45.3" cy="150.2" rx="0.5" ry="0.2"/>
        </g>
    </g>
</g>
<g>
    <g class="st1">
        <path d="M126.1,197.9c-0.4,0.7-0.8,1.4-0.9,1.8c-0.4,0.9-0.8,2.4-1.7,3.2c-1.6,1.4-3.5,2.4-4.4,2.9c-1.5,0.8-3.8,1.7-5.1,2.3
            c-0.5,0.2-2.2,0.9-2.2,0.9c-0.9,0.5-0.8,1.4,0.3,2.1c0,0,0,0,0,0c0,0,0,0,0,0c0.8,0.5,1.9,0.7,2.8,0.6c0.3,0,0.5-0.1,0.7-0.2
            c0.1-0.1,0.2-0.1,0.3-0.2c0.4-0.3,1.1-0.8,1.5-0.9c1.8-1,4.3-2.2,6.2-3.1c0.9-0.4,4.7-1.8,5.7-2c2.1-0.6,5-0.5,6.7-0.8
            c0,0,0.1,0,0.1,0c0.2,0.2,0.4,0.3,0.6,0.5c3.5,2.2,11.9,1.2,18.9-2.4c5.5-2.8,8.4-6.4,7.6-8.9c5.9-3.4,8-7.6,4.8-9.7
            c-2.1-1.3-5.8-1.5-10-0.7c-0.3-0.3-0.6-0.6-0.9-0.8c-4.2-2.7-14.5-1.4-23,2.9C125.8,189.5,122.3,195.1,126.1,197.9z M130.7,199.4
            c1.7,0.2,3.6,0.1,5.6-0.1c-0.5,0.7-0.9,1.4-1.1,2c-0.5,0.1-1.5,0.3-1.9,0.3c0,0,0,0,0,0c-0.7,0-1.9,0-2.4-0.4
            c-0.3-0.3-0.3-0.7-0.3-1c0,0,0,0,0,0C130.6,200,130.7,199.7,130.7,199.4z"/>
    </g>
    <g>
        <path class="st0" d="M103.7,182.9c0,0,1.4,1.7,1.9,2.1c0.8,0.7,2.3,1.6,3.2,2.1c0,0,0.1,0,0.1,0.1c0.7,0.4,1.7,0.9,2.7,0.9
            c1.5,0.1,2.9-0.7,3.6-1.3c0,0,0,0,0,0c0.4-0.4,1.2-1.3,1.6-1.8c0.8-1,1.8-4.8,1.8-4.8h5.5h3.3l-2.9,7.3c0,0-0.2,0.4-0.3,0.5
            c-1.4,1.5-4.8,3.6-5.9,5.6c-0.6,1-1.9,5.2-2,6.4c-0.1,2.4-0.5,5.5-0.3,7.9c0,0.5,0.3,1.5,0.4,2.1c0.1,0.1,0.1,0.3,0.1,0.4
            c0,0.3-0.1,0.5-0.3,0.8c-0.7,0.8-2.5,1.4-4.6,1.4c-2.7,0-4.9-0.9-4.9-2.1c0,0,0.4-1.9,0.5-2.5c0.3-1.5,0.8-4.2,0.8-6.2
            c0-1.2,0-3.6-1.3-6.4c-0.8-1.6-3.6-3.5-5.2-4.9c-1.7-1.4-7.4-6.9-7.4-6.9L103.7,182.9z"/>
    </g>
    <g>
        <path class="st0" d="M108.7,187.2c0.7,0.4,1.7,0.9,2.7,0.9c1.5,0.1,2.9-0.7,3.6-1.3c0,0,0,0,0,0v0.6c-3.4,0,0,3.4-1.7,5.1
            c0-2.9-3.6-3.3-4.7-5.4C108.7,187.2,108.7,187.2,108.7,187.2z"/>
    </g>
    <g>
        <path class="st0" d="M103.6,182.9c0,0,1.4,1.7,1.9,2.1c0.8,0.7,2.3,1.6,3.2,2.1c1.2,2.1,4.7,2.6,4.7,5.4c1.7-1.7-1.7-5.1,1.7-5.1
            v-0.6c0.4-0.4,1.2-1.3,1.6-1.8c0.8-1,1.8-4.8,1.8-4.8h5.5c-7.5,8.5-9.1,20.5-10.6,31.1c0.7-0.7,1.7-0.5,2.6-0.1
            c-0.7,0.8-2.5,1.4-4.6,1.4c-2.7,0-4.9-0.9-4.9-2.1c0,0,0.4-1.9,0.5-2.5c0.3-1.5,0.8-4.2,0.8-6.2c0-1.2,0-3.6-1.3-6.4
            c-0.8-1.6-3.6-3.5-5.2-4.9c-1.7-1.4-7.4-6.9-7.4-6.9L103.6,182.9z"/>
    </g>
    <g>
        <path class="st0" d="M113.4,211.3c1.5-10.6,3.1-22.6,10.6-31.1h3.3l-2.9,7.3c0,0-0.2,0.4-0.3,0.5c-1.4,1.5-4.8,3.6-5.9,5.6
            c-0.6,1-1.9,5.2-1.9,6.4c-0.1,2.4-0.5,5.5-0.3,7.9c0,0.5,0.3,1.5,0.4,2.1c0.1,0.1,0.1,0.3,0.1,0.4c0,0.3-0.1,0.5-0.3,0.8
            C115.1,210.8,114.1,210.6,113.4,211.3z"/>
    </g>
    <g>
        <path class="st0" d="M109,196c0.1,1.6,0.3,2.9,0.4,2.9c0.1,0,0-1.3-0.1-2.9c-0.1-1.6-0.3-2.9-0.4-2.9
            C108.8,193.1,108.8,194.4,109,196z"/>
    </g>
    <g>
        <path class="st0" d="M115.7,191.8c-0.4,1.6-0.6,2.9-0.5,2.9c0.1,0,0.4-1.2,0.8-2.8c0.4-1.6,0.6-2.9,0.5-2.9
            C116.4,188.9,116.1,190.2,115.7,191.8z"/>
    </g>
    <g>
        <path class="st0" d="M111.4,194.2c0,1,0,1.8,0.1,1.8c0,0,0.1-0.8,0.1-1.8c0-1,0-1.8-0.1-1.8C111.4,192.4,111.4,193.2,111.4,194.2z
            "/>
    </g>
    <g>
        <path class="st0" d="M106.1,190.9c0.3,0.9,0.6,1.7,0.6,1.7c0,0-0.2-0.8-0.5-1.7c-0.3-0.9-0.6-1.7-0.6-1.7
            C105.6,189.2,105.8,190,106.1,190.9z"/>
    </g>
    <g>
        <line class="st0" x1="115.1" y1="186.2" x2="124.4" y2="187.5"/>
    </g>
    <g>
        <ellipse class="st0" cx="98.7" cy="182.9" rx="4.9" ry="2.1"/>
    </g>
    <g>
        <ellipse class="st0" cx="122.9" cy="180.2" rx="4.4" ry="1.9"/>
    </g>
    <g>
        <g>

                <ellipse transform="matrix(0.9866 -0.1631 0.1631 0.9866 -24.5489 22.6438)" class="st0" cx="125.6" cy="160.8" rx="0.2" ry="0.6"/>
        </g>
        <g>
            <circle class="st0" cx="126" cy="171.8" r="16.2"/>
        </g>
        <g>

                <ellipse transform="matrix(7.990105e-02 -0.9968 0.9968 7.990105e-02 -64.2845 288.7648)" class="st0" cx="124.3" cy="179.2" rx="0.6" ry="0.2"/>
        </g>
        <g>

                <ellipse transform="matrix(0.995 -0.1003 0.1003 0.995 -16.3301 13.3699)" class="st0" cx="124.8" cy="169.1" rx="0.2" ry="0.6"/>
        </g>
        <g>

                <ellipse transform="matrix(0.9956 -9.366074e-02 9.366074e-02 0.9956 -14.565 12.533)" class="st0" cx="126.2" cy="161.4" rx="0.2" ry="0.6"/>
        </g>
        <g>
            <ellipse transform="matrix(0.9873 -0.159 0.159 0.9873 -26.0184 22.8157)" class="st0" cx="129.5" cy="174" rx="0.2" ry="0.6"/>
        </g>
        <g>

                <ellipse transform="matrix(0.9872 -0.1597 0.1597 0.9872 -24.7384 23.0973)" class="st0" cx="131.4" cy="165.5" rx="0.2" ry="0.6"/>
        </g>
        <g>

                <ellipse transform="matrix(0.3803 -0.9249 0.9249 0.3803 -88.8576 233.4507)" class="st0" cx="129.8" cy="183" rx="0.6" ry="0.2"/>
        </g>
        <g>

                <ellipse transform="matrix(0.225 -0.9744 0.9744 0.225 -66.306 268.1057)" class="st0" cx="135.4" cy="175.7" rx="0.6" ry="0.2"/>
        </g>
        <g>

                <ellipse transform="matrix(7.418641e-02 -0.9972 0.9972 7.418641e-02 -63.3156 280.7403)" class="st0" cx="119.5" cy="174.5" rx="0.6" ry="0.2"/>
        </g>
        <g>

                <ellipse transform="matrix(7.640540e-02 -0.9971 0.9971 7.640540e-02 -52.347 271.9389)" class="st0" cx="120.6" cy="164.2" rx="0.6" ry="0.2"/>
        </g>
        <g>

                <ellipse transform="matrix(7.606401e-02 -0.9971 0.9971 7.606401e-02 -64.3264 270.1344)" class="st0" cx="113.6" cy="169.8" rx="0.6" ry="0.2"/>
        </g>
        <g>

                <ellipse transform="matrix(7.418641e-02 -0.9972 0.9972 7.418641e-02 -72.796 287.6567)" class="st0" cx="118.5" cy="183" rx="0.6" ry="0.2"/>
        </g>
        <g>

                <ellipse transform="matrix(0.9109 -0.4127 0.4127 0.9109 -57.0654 72.7622)" class="st0" cx="139.9" cy="168.5" rx="0.2" ry="0.6"/>
        </g>
        <g>
            <ellipse transform="matrix(0.273 -0.962 0.962 0.273 -76.0946 264.1048)" class="st0" cx="136.7" cy="182.4" rx="0.6" ry="0.2"/>
        </g>
        <g>

                <ellipse transform="matrix(0.2762 -0.9611 0.9611 0.2762 -64.6672 260.7849)" class="st0" cx="140.8" cy="173.3" rx="0.6" ry="0.2"/>
        </g>
        <g>

                <ellipse transform="matrix(0.4369 -0.8995 0.8995 0.4369 -68.6209 210.0359)" class="st0" cx="133.5" cy="159.8" rx="0.2" ry="0.6"/>
        </g>
        <g>

                <ellipse transform="matrix(0.8842 -0.4672 0.4672 0.8842 -60.2335 74.211)" class="st0" cx="119.5" cy="158.6" rx="0.6" ry="0.2"/>
        </g>
    </g>
    <g>
        <g>

                <ellipse transform="matrix(0.987 -0.1606 0.1606 0.987 -22.1831 20.3437)" class="st0" cx="114.7" cy="147.4" rx="0.2" ry="0.6"/>
        </g>
        <g>
            <circle class="st0" cx="115.1" cy="158.4" r="16.2"/>
        </g>
        <g>

                <ellipse transform="matrix(7.933626e-02 -0.9968 0.9968 7.933626e-02 -60.8442 265.6835)" class="st0" cx="113.4" cy="165.8" rx="0.6" ry="0.2"/>
        </g>
        <g>
            <ellipse transform="matrix(0.995 -0.1001 0.1001 0.995 -15.0182 12.194)" class="st0" cx="114" cy="155.7" rx="0.2" ry="0.6"/>
        </g>
        <g>

                <ellipse transform="matrix(0.9956 -9.407237e-02 9.407237e-02 0.9956 -13.412 11.5094)" class="st0" cx="115.4" cy="148" rx="0.2" ry="0.6"/>
        </g>
        <g>

                <ellipse transform="matrix(0.9875 -0.1575 0.1575 0.9875 -23.8017 20.692)" class="st0" cx="118.7" cy="160.5" rx="0.2" ry="0.6"/>
        </g>
        <g>

                <ellipse transform="matrix(0.9875 -0.1577 0.1577 0.9875 -22.4767 20.9085)" class="st0" cx="120.5" cy="152.1" rx="0.2" ry="0.6"/>
        </g>
        <g>

                <ellipse transform="matrix(0.3783 -0.9257 0.9257 0.3783 -83.0785 215.5188)" class="st0" cx="118.9" cy="169.6" rx="0.6" ry="0.2"/>
        </g>
        <g>

                <ellipse transform="matrix(0.2253 -0.9743 0.9743 0.2253 -61.67 247.0689)" class="st0" cx="124.5" cy="162.3" rx="0.6" ry="0.2"/>
        </g>
        <g>

                <ellipse transform="matrix(7.408621e-02 -0.9973 0.9973 7.408621e-02 -59.9795 257.4956)" class="st0" cx="108.7" cy="161" rx="0.6" ry="0.2"/>
        </g>
        <g>

                <ellipse transform="matrix(7.673797e-02 -0.9971 0.9971 7.673797e-02 -49.0321 248.6549)" class="st0" cx="109.7" cy="150.8" rx="0.6" ry="0.2"/>
        </g>
        <g>

                <ellipse transform="matrix(7.718576e-02 -0.997 0.997 7.718576e-02 -61.0833 246.7145)" class="st0" cx="102.7" cy="156.4" rx="0.6" ry="0.2"/>
        </g>
        <g>

                <ellipse transform="matrix(7.569735e-02 -0.9971 0.9971 7.569735e-02 -69.6129 264.1252)" class="st0" cx="107.7" cy="169.6" rx="0.6" ry="0.2"/>
        </g>
        <g>

                <ellipse transform="matrix(0.9107 -0.4132 0.4132 0.9107 -52.5438 67.1837)" class="st0" cx="129.1" cy="155.1" rx="0.2" ry="0.6"/>
        </g>
        <g>
            <ellipse transform="matrix(0.2766 -0.961 0.961 0.2766 -71.3548 243.1709)" class="st0" cx="125.8" cy="169" rx="0.6" ry="0.2"/>
        </g>
        <g>

                <ellipse transform="matrix(0.2756 -0.9613 0.9613 0.2756 -59.581 240.743)" class="st0" cx="129.9" cy="159.9" rx="0.6" ry="0.2"/>
        </g>
        <g>

                <ellipse transform="matrix(0.4342 -0.9008 0.9008 0.4342 -62.524 193.2688)" class="st0" cx="122.6" cy="146.4" rx="0.2" ry="0.6"/>
        </g>
        <g>

                <ellipse transform="matrix(0.8849 -0.4658 0.4658 0.8849 -55.1042 67.3332)" class="st0" cx="108.7" cy="145.2" rx="0.6" ry="0.2"/>
        </g>
    </g>
    <g>
        <g>

                <ellipse transform="matrix(0.9871 -0.1603 0.1603 0.9871 -23.528 17.8496)" class="st0" cx="98.9" cy="154.7" rx="0.3" ry="0.8"/>
        </g>
        <g>
            <ellipse class="st0" cx="99.3" cy="168.1" rx="19.8" ry="19.8"/>
        </g>
        <g>

                <ellipse transform="matrix(7.974523e-02 -0.9968 0.9968 7.974523e-02 -87.0732 259.928)" class="st0" cx="97.2" cy="177.1" rx="0.8" ry="0.3"/>
        </g>
        <g>
            <path class="st0" d="M97.6,164.9c0,0.4,0.2,0.8,0.4,0.7c0.2,0,0.2-0.4,0.2-0.8c0-0.4-0.2-0.8-0.4-0.7
                C97.7,164.1,97.6,164.5,97.6,164.9z"/>
        </g>
        <g>

                <ellipse transform="matrix(0.9958 -9.138986e-02 9.138986e-02 0.9958 -13.7945 9.7552)" class="st0" cx="99.6" cy="155.5" rx="0.3" ry="0.8"/>
        </g>
        <g>

                <ellipse transform="matrix(0.9863 -0.1647 0.1647 0.9863 -26.7031 19.3975)" class="st0" cx="103.6" cy="170.7" rx="0.3" ry="0.8"/>
        </g>
        <g>

                <ellipse transform="matrix(0.9876 -0.1571 0.1571 0.9876 -23.892 18.6236)" class="st0" cx="105.9" cy="160.4" rx="0.3" ry="0.8"/>
        </g>
        <g>
            <path class="st0" d="M103.7,181.7c-0.2,0.4-0.2,0.8,0,0.8c0.1,0.1,0.4-0.2,0.6-0.6c0.2-0.4,0.2-0.8,0-0.8
                C104.1,181,103.8,181.3,103.7,181.7z"/>
        </g>
        <g>

                <ellipse transform="matrix(0.2227 -0.9749 0.9749 0.2227 -82.4699 242.3701)" class="st0" cx="110.8" cy="172.9" rx="0.8" ry="0.3"/>
        </g>
        <g>
            <path class="st0" d="M91.2,171.3c0,0.4,0.1,0.8,0.2,0.8c0.2,0,0.3-0.3,0.3-0.8c0-0.4-0.1-0.8-0.2-0.8
                C91.4,170.6,91.2,170.9,91.2,171.3z"/>
        </g>
        <g>

                <ellipse transform="matrix(8.021706e-02 -0.9968 0.9968 8.021706e-02 -73.0471 238.6378)" class="st0" cx="92.8" cy="158.9" rx="0.8" ry="0.3"/>
        </g>
        <g>

                <ellipse transform="matrix(6.947735e-02 -0.9976 0.9976 6.947735e-02 -86.8584 238.1926)" class="st0" cx="84.3" cy="165.7" rx="0.8" ry="0.3"/>
        </g>
        <g>

                <ellipse transform="matrix(7.773396e-02 -0.997 0.997 7.773396e-02 -98.0039 257.6257)" class="st0" cx="90.2" cy="181.8" rx="0.8" ry="0.3"/>
        </g>
        <g>
            <path class="st0" d="M116,164.2c0.2,0.4,0.4,0.7,0.6,0.6c0.1-0.1,0.1-0.4-0.1-0.8c-0.2-0.4-0.4-0.7-0.6-0.6
                C115.8,163.5,115.9,163.8,116,164.2z"/>
        </g>
        <g>

                <ellipse transform="matrix(0.2826 -0.9592 0.9592 0.2826 -93.031 237.6331)" class="st0" cx="112.4" cy="181" rx="0.8" ry="0.3"/>
        </g>
        <g>

                <ellipse transform="matrix(0.2756 -0.9613 0.9613 0.2756 -78.3794 235.9377)" class="st0" cx="117.3" cy="170" rx="0.8" ry="0.3"/>
        </g>
        <g>

                <ellipse transform="matrix(0.4322 -0.9018 0.9018 0.4322 -76.9161 184.9493)" class="st0" cx="108.4" cy="153.6" rx="0.3" ry="0.8"/>
        </g>
        <g>
            <path class="st0" d="M91.6,152.3c0.4-0.2,0.6-0.5,0.6-0.6c-0.1-0.1-0.4-0.1-0.8,0.1c-0.4,0.2-0.6,0.5-0.6,0.6
                C90.9,152.5,91.2,152.5,91.6,152.3z"/>
        </g>
    </g>
</g>
</svg>
