<?xml version="1.0" encoding="utf-8"?>
<!-- Generator: Adobe Illustrator 21.0.0, SVG Export Plug-In . SVG Version: 6.00 Build 0)  -->
<!DOCTYPE svg PUBLIC "-//W3C//DTD SVG 1.1//EN" "http://www.w3.org/Graphics/SVG/1.1/DTD/svg11.dtd">
<svg version="1.1" id="Layer_1" xmlns="http://www.w3.org/2000/svg" xmlns:xlink="http://www.w3.org/1999/xlink" x="0px" y="0px"
	 viewBox="0 0 188 191" style="enable-background:new 0 0 188 191;" xml:space="preserve">
<style type="text/css">
	.st0{fill:#FFFFFF;stroke:#000000;stroke-miterlimit:10;}
	.st1{opacity:0.2;}
	.st2{enable-background:new    ;}
	.st3{opacity:0.3;}
	.st4{clip-path:url(#SVGID_2_);}
	.st5{opacity:0.5;}
	.st6{clip-path:url(#SVGID_4_);}
</style>
<g>
	<rect x="103.8" y="43" class="st0" width="3.8" height="80.7"/>
	<path class="st0" d="M114,33.1c1.6-1,3.9,0.4,3.9,2.3c0,1.6,0,2.9,0,3c0,0.1-13,7.2-13,7.2l-1.3-6.4
		C103.5,39.1,111.6,34.6,114,33.1z"/>
	<path class="st0" d="M103.8,44.5L129.8,59c0.4,0.2,0.8-0.3,0.4-0.6l-24.4-19L103.8,44.5z"/>
	<path class="st0" d="M105.8,42.4c0,0-16.8,11.7-26,17.8c-0.4,0.3-0.8-0.3-0.5-0.6c6-5.8,22.7-19.4,22.7-19.4L105.8,42.4z"/>
	<path class="st0" d="M105.8,40c0.1-1.4-4.6-17.9-7-26.4c-0.1-0.5-0.8-0.3-0.8,0.2l3.7,28.5L105.8,40z"/>
	<ellipse class="st0" cx="104.2" cy="42" rx="3.2" ry="4"/>
</g>
<g>
	<path class="st0" d="M162.3,41.4c1.8-1.2,4.4,0.4,4.4,2.6c0,1.7,0,3.3,0,3.3c0,0.1-15,9.7-15,9.7l-1.1-8.8
		C150.6,48.2,159.6,43.1,162.3,41.4z"/>
	<rect x="151.2" y="53.3" class="st0" width="4.3" height="90.2"/>
	<path class="st0" d="M148.9,50.8l-13.7,30.7c-0.2,0.6,0.5,1,0.9,0.5L153,53.1L148.9,50.8z"/>
	<path class="st0" d="M150.9,53.9c0,0-14.3-16.9-22.2-26.6c-0.4-0.5,0.2-1.1,0.7-0.7C136.8,33,153,49.4,153,49.4L150.9,53.9z"/>
	<path class="st0" d="M152,54.1c1.5,0.3,19.4-3.5,29.2-5.6c0.6-0.1,0.5-1-0.1-1l-31.3,1.9L152,54.1z"/>
	<ellipse class="st0" cx="151" cy="52" rx="3.1" ry="3.6"/>
</g>
<g>
	<path class="st0" d="M66,29c1.8-1.2,4.4,0.4,4.4,2.6c0,1.7,0,3.3,0,3.3c0,0.1-15,9.7-15,9.7l-1.1-8.8C54.3,35.7,63.3,30.7,66,29z"
		/>
	<polygon class="st0" points="54.9,131 59.2,131 59.2,39.9 54.9,40.9 	"/>
	<path class="st0" d="M52.6,38.7l-6.1,33.1c-0.1,0.6,0.7,0.8,0.9,0.2L57,40L52.6,38.7z"/>
	<path class="st0" d="M55.3,41.5c0,0-17.8-13-27.8-20.6c-0.5-0.4,0-1.1,0.5-0.8c8.6,4.5,28.2,16.6,28.2,16.6L55.3,41.5z"/>
	<path class="st0" d="M56.4,41.4c1.5-0.1,18.1-8,27.1-12.3c0.5-0.3,0.2-1.1-0.4-0.9l-30,9.2L56.4,41.4z"/>
	<ellipse transform="matrix(0.9182 -0.3962 0.3962 0.9182 -11.105 24.8123)" class="st0" cx="54.5" cy="39.3" rx="3.1" ry="3.6"/>
</g>
<g>
	<g class="st1">
		<g>
			<g class="st2">
				<g>
					<g>
						<g>
							<path d="M87.4,141.3l70.3-4l-70.1,4l0,0L87.4,141.3 M157.7,137.2l-22.9-0.9l-70.3,3.9l-0.2,0.1h0l-8.4-5l3.5,1.5l-2.9,2.1
								l13.7,5.8l3.4,4.6l0,0L75,150l1.4,0.9l7.4,4.7l0.3,0.1l1.1,0.5l0,0l15.8,11.8l54.8-9.9l10.5-7.7l0.2-0.2l0.1-0.1L157.7,137.2
								"/>
						</g>
					</g>
				</g>
			</g>
		</g>
	</g>
	<g>
		<g>
			<g>
				<polygon class="st0" points="100.9,148 120.1,123 138,126.6 138,146.5 100.9,167.9 				"/>
			</g>
		</g>
		<g>
			<g>
				<g>
					<polygon class="st0" points="129.2,135.2 133.4,132.8 133.4,129.6 129.2,132 					"/>
				</g>
			</g>
			<g>
				<g>
					<polygon class="st0" points="129.2,135 133.1,132.7 133.1,129.7 129.2,132 					"/>
				</g>
			</g>
			<g>
				<g>
					<polygon class="st0" points="129.2,134.8 133,132.6 133,129.8 129.2,132 					"/>
				</g>
			</g>
			<g>
				<g>
					<polygon class="st0" points="129.2,134.7 133,132.6 133,129.8 129.2,132 					"/>
				</g>
			</g>
			<g>
				<g>
					<polygon class="st0" points="131.9,130.4 132.1,130.3 132.1,133 131.9,133.2 					"/>
				</g>
			</g>
			<g>
				<g>
					<polygon class="st0" points="132,130.4 132.1,130.3 132.1,133.1 132,133.2 					"/>
				</g>
			</g>
			<g>
				<g>
					<polygon class="st0" points="130.3,131.4 130.4,131.3 130.4,134 130.3,134.1 					"/>
				</g>
			</g>
			<g>
				<g>
					<polygon class="st0" points="130.3,131.3 130.5,131.2 130.5,134.1 130.3,134.2 					"/>
				</g>
			</g>
			<g>
				<g>
					<polygon class="st0" points="129.2,133.3 130.3,132.6 130.3,132.5 129.2,133.1 					"/>
				</g>
			</g>
			<g>
				<g>
					<polygon class="st0" points="130.5,132.6 131.9,131.7 131.9,131.5 130.5,132.4 					"/>
				</g>
			</g>
			<g>
				<g>
					<polygon class="st0" points="129.2,133.3 133,131.1 133,131 129.2,133.2 					"/>
				</g>
			</g>
			<g>
				<g>
					<polygon class="st0" points="129.2,135 129.2,135.2 133.4,132.8 133.1,132.7 					"/>
				</g>
			</g>
		</g>
		<g>
			<g>
				<g>
					<polygon class="st0" points="124.3,137.8 128.5,135.4 128.5,132.2 124.3,134.6 					"/>
				</g>
			</g>
			<g>
				<g>
					<polygon class="st0" points="124.3,137.6 128.3,135.3 128.3,132.3 124.3,134.6 					"/>
				</g>
			</g>
			<g>
				<g>
					<polygon class="st0" points="124.3,137.4 128.1,135.2 128.1,132.4 124.3,134.6 					"/>
				</g>
			</g>
			<g>
				<g>
					<polygon class="st0" points="124.3,137.3 128.1,135.2 128.1,132.4 124.3,134.6 					"/>
				</g>
			</g>
			<g>
				<g>
					<polygon class="st0" points="127.1,133 127.2,132.9 127.2,135.6 127.1,135.8 					"/>
				</g>
			</g>
			<g>
				<g>
					<polygon class="st0" points="127.1,133 127.3,132.9 127.3,135.7 127.1,135.8 					"/>
				</g>
			</g>
			<g>
				<g>
					<polygon class="st0" points="125.4,134 125.6,133.9 125.6,136.6 125.4,136.7 					"/>
				</g>
			</g>
			<g>
				<g>
					<polygon class="st0" points="125.5,133.9 125.6,133.8 125.6,136.7 125.5,136.8 					"/>
				</g>
			</g>
			<g>
				<g>
					<polygon class="st0" points="124.3,135.9 125.5,135.2 125.5,135.1 124.3,135.7 					"/>
				</g>
			</g>
			<g>
				<g>
					<polygon class="st0" points="125.6,135.2 127.1,134.3 127.1,134.1 125.6,135 					"/>
				</g>
			</g>
			<g>
				<g>
					<polygon class="st0" points="124.3,135.9 128.1,133.7 128.1,133.6 124.3,135.8 					"/>
				</g>
			</g>
			<g>
				<g>
					<polygon class="st0" points="124.3,137.6 124.3,137.8 128.5,135.4 128.3,135.3 					"/>
				</g>
			</g>
		</g>
		<g>
			<g>
				<g>
					<polygon class="st0" points="119.1,140.7 123.3,138.3 123.3,135.1 119.1,137.5 					"/>
				</g>
			</g>
			<g>
				<g>
					<polygon class="st0" points="119.1,140.5 123.1,138.2 123.1,135.2 119.1,137.5 					"/>
				</g>
			</g>
			<g>
				<g>
					<polygon class="st0" points="119.1,140.3 122.9,138.1 122.9,135.3 119.1,137.5 					"/>
				</g>
			</g>
			<g>
				<g>
					<polygon class="st0" points="119.1,140.2 122.9,138 122.9,135.3 119.1,137.5 					"/>
				</g>
			</g>
			<g>
				<g>
					<polygon class="st0" points="121.8,135.9 122,135.8 122,138.5 121.8,138.6 					"/>
				</g>
			</g>
			<g>
				<g>
					<polygon class="st0" points="121.9,135.9 122,135.8 122,138.6 121.9,138.7 					"/>
				</g>
			</g>
			<g>
				<g>
					<polygon class="st0" points="120.2,136.9 120.3,136.8 120.3,139.5 120.2,139.6 					"/>
				</g>
			</g>
			<g>
				<g>
					<polygon class="st0" points="120.2,136.8 120.4,136.7 120.4,139.6 120.2,139.7 					"/>
				</g>
			</g>
			<g>
				<g>
					<polygon class="st0" points="119.1,138.8 120.2,138.1 120.2,138 119.1,138.6 					"/>
				</g>
			</g>
			<g>
				<g>
					<polygon class="st0" points="120.4,138 121.8,137.2 121.8,137 120.4,137.9 					"/>
				</g>
			</g>
			<g>
				<g>
					<polygon class="st0" points="119.1,138.8 122.9,136.6 122.9,136.5 119.1,138.7 					"/>
				</g>
			</g>
			<g>
				<g>
					<polygon class="st0" points="119.1,140.5 119.1,140.7 123.3,138.3 123.1,138.2 					"/>
				</g>
			</g>
		</g>
		<g>
			<g>
				<g>
					<polygon class="st0" points="113.5,143.8 117.7,141.4 117.7,138.2 113.5,140.6 					"/>
				</g>
			</g>
			<g>
				<g>
					<polygon class="st0" points="113.5,143.6 117.5,141.3 117.5,138.3 113.5,140.6 					"/>
				</g>
			</g>
			<g>
				<g>
					<polygon class="st0" points="113.5,143.4 117.3,141.2 117.3,138.4 113.5,140.6 					"/>
				</g>
			</g>
			<g>
				<g>
					<polygon class="st0" points="113.5,143.3 117.3,141.1 117.3,138.4 113.5,140.6 					"/>
				</g>
			</g>
			<g>
				<g>
					<polygon class="st0" points="116.3,139 116.4,138.9 116.4,141.6 116.3,141.7 					"/>
				</g>
			</g>
			<g>
				<g>
					<polygon class="st0" points="116.3,139 116.5,138.9 116.5,141.7 116.3,141.8 					"/>
				</g>
			</g>
			<g>
				<g>
					<polygon class="st0" points="114.6,140 114.8,139.9 114.8,142.6 114.6,142.7 					"/>
				</g>
			</g>
			<g>
				<g>
					<polygon class="st0" points="114.7,139.9 114.8,139.8 114.8,142.6 114.7,142.8 					"/>
				</g>
			</g>
			<g>
				<g>
					<polygon class="st0" points="113.5,141.9 114.7,141.2 114.7,141 113.5,141.7 					"/>
				</g>
			</g>
			<g>
				<g>
					<polygon class="st0" points="114.8,141.1 116.3,140.3 116.3,140.1 114.8,141 					"/>
				</g>
			</g>
			<g>
				<g>
					<polygon class="st0" points="113.5,141.9 117.3,139.7 117.3,139.6 113.5,141.8 					"/>
				</g>
			</g>
			<g>
				<g>
					<polygon class="st0" points="113.5,143.6 113.5,143.8 117.7,141.4 117.5,141.3 					"/>
				</g>
			</g>
		</g>
		<g>
			<g>
				<g>
					<polygon class="st0" points="107.4,147.3 111.5,144.9 111.5,141.7 107.4,144.1 					"/>
				</g>
			</g>
			<g>
				<g>
					<polygon class="st0" points="107.4,147.1 111.3,144.8 111.3,141.8 107.4,144.1 					"/>
				</g>
			</g>
			<g>
				<g>
					<polygon class="st0" points="107.4,146.9 111.2,144.7 111.2,141.9 107.4,144.1 					"/>
				</g>
			</g>
			<g>
				<g>
					<polygon class="st0" points="107.4,146.8 111.1,144.7 111.1,141.9 107.4,144.1 					"/>
				</g>
			</g>
			<g>
				<g>
					<polygon class="st0" points="110.1,142.5 110.3,142.4 110.3,145.2 110.1,145.3 					"/>
				</g>
			</g>
			<g>
				<g>
					<polygon class="st0" points="110.2,142.5 110.3,142.4 110.3,145.2 110.2,145.3 					"/>
				</g>
			</g>
			<g>
				<g>
					<polygon class="st0" points="108.5,143.5 108.6,143.4 108.6,146.1 108.5,146.2 					"/>
				</g>
			</g>
			<g>
				<g>
					<polygon class="st0" points="108.5,143.5 108.7,143.4 108.7,146.2 108.5,146.3 					"/>
				</g>
			</g>
			<g>
				<g>
					<polygon class="st0" points="107.4,145.4 108.5,144.8 108.5,144.6 107.4,145.2 					"/>
				</g>
			</g>
			<g>
				<g>
					<polygon class="st0" points="108.7,144.7 110.1,143.8 110.1,143.7 108.7,144.5 					"/>
				</g>
			</g>
			<g>
				<g>
					<polygon class="st0" points="107.4,145.5 111.2,143.3 111.2,143.1 107.4,145.3 					"/>
				</g>
			</g>
			<g>
				<g>
					<polygon class="st0" points="107.4,147.1 107.4,147.3 111.5,144.9 111.3,144.8 					"/>
				</g>
			</g>
		</g>
		<g>
			<g>
				<g>
					<g>
						<polygon class="st0" points="72.5,95.1 120.4,122.5 138,126.3 90.2,99.3 						"/>
					</g>
				</g>
				<g>
					<g>
						<polygon class="st0" points="138,126.3 120.1,122.3 120.1,123 138,126.9 						"/>
					</g>
				</g>
				<g>
					<g>
						<polygon class="st0" points="72.5,95.1 120.1,122.3 100.8,147.8 53.2,120.3 						"/>
					</g>
				</g>
				<g>
					<g>
						<polygon class="st0" points="100.8,148.4 120.1,123 120.1,122.3 100.8,147.8 						"/>
					</g>
				</g>
			</g>
			<g>
				<g>
					<polygon class="st0" points="53.2,120.3 100.8,147.8 100.8,148.4 53.2,121 					"/>
				</g>
			</g>
		</g>
		<g>
			<g>
				<g>
					<polygon class="st0" points="135.4,147.9 125.5,153.7 124.3,154.4 123,155.1 123,142.2 135.4,135.1 					"/>
				</g>
			</g>
			<g>
				<g>
					<polygon class="st0" points="124.3,142.9 134.2,137.2 134.2,148.6 124.3,154.4 					"/>
				</g>
			</g>
			<g>
				<g>
					<polygon class="st0" points="124.3,154.4 134.2,148.6 134.2,148.5 124.3,154.2 					"/>
				</g>
			</g>
			<g>
				<g>
					<polygon class="st0" points="133.9,148.8 134.2,148.6 134.2,137.2 133.9,137.4 					"/>
				</g>
			</g>
			<g>
				<g>
					<polygon class="st0" points="124.3,143.7 133.9,138.1 133.9,137.4 124.3,142.9 					"/>
				</g>
			</g>
			<g>
				<g>
					<path class="st0" d="M124.2,143.7v-0.8l0,0l9.7-5.6v0.8l0,0L124.2,143.7z M124.3,143v0.6l9.5-5.5v-0.6L124.3,143z"/>
				</g>
			</g>
			<g>
				<g>
					<polygon class="st0" points="124.3,144.4 133.9,138.8 133.9,138.1 124.3,143.6 					"/>
				</g>
			</g>
			<g>
				<g>
					<path class="st0" d="M124.2,144.4v-0.8l0,0l9.7-5.6v0.8l0,0L124.2,144.4z M124.3,143.7v0.6l9.5-5.5v-0.6L124.3,143.7z"/>
				</g>
			</g>
			<g>
				<g>
					<polygon class="st0" points="124.3,145.1 133.9,139.5 133.9,138.8 124.3,144.4 					"/>
				</g>
			</g>
			<g>
				<g>
					<path class="st0" d="M124.2,145.2v-0.8l0,0l9.7-5.6v0.8l0,0L124.2,145.2z M124.3,144.4v0.6l9.5-5.5v-0.6L124.3,144.4z"/>
				</g>
			</g>
			<g>
				<g>
					<polygon class="st0" points="124.3,145.8 133.9,140.2 133.9,139.5 124.3,145.1 					"/>
				</g>
			</g>
			<g>
				<g>
					<path class="st0" d="M124.2,145.9V145l0,0l9.7-5.6v0.8l0,0L124.2,145.9z M124.3,145.1v0.6l9.5-5.5v-0.6L124.3,145.1z"/>
				</g>
			</g>
			<g>
				<g>
					<polygon class="st0" points="124.3,146.5 133.9,140.9 133.9,140.2 124.3,145.8 					"/>
				</g>
			</g>
			<g>
				<g>
					<path class="st0" d="M124.2,146.6v-0.8l0,0l9.7-5.6v0.8l0,0L124.2,146.6z M124.3,145.8v0.6l9.5-5.5v-0.6L124.3,145.8z"/>
				</g>
			</g>
			<g>
				<g>
					<polygon class="st0" points="124.3,147.2 133.9,141.7 133.9,140.9 124.3,146.5 					"/>
				</g>
			</g>
			<g>
				<g>
					<path class="st0" d="M124.2,147.3v-0.8l0,0l9.7-5.6v0.8l0,0L124.2,147.3z M124.3,146.5v0.6l9.5-5.5V141L124.3,146.5z"/>
				</g>
			</g>
			<g>
				<g>
					<polygon class="st0" points="124.3,147.9 133.9,142.4 133.9,141.7 124.3,147.2 					"/>
				</g>
			</g>
			<g>
				<g>
					<path class="st0" d="M124.2,148v-0.8l0,0l9.7-5.6v0.8l0,0L124.2,148z M124.3,147.2v0.6l9.5-5.5v-0.6L124.3,147.2z"/>
				</g>
			</g>
			<g>
				<g>
					<polygon class="st0" points="124.3,148.6 133.9,143.1 133.9,142.4 124.3,147.9 					"/>
				</g>
			</g>
			<g>
				<g>
					<path class="st0" d="M124.2,148.7v-0.8l0,0l9.7-5.6v0.8l0,0L124.2,148.7z M124.3,148v0.6l9.5-5.5v-0.6L124.3,148z"/>
				</g>
			</g>
			<g>
				<g>
					<polygon class="st0" points="124.3,149.4 133.9,143.8 133.9,143.1 124.3,148.6 					"/>
				</g>
			</g>
			<g>
				<g>
					<path class="st0" d="M124.2,149.4v-0.8l0,0l9.7-5.6v0.8l0,0L124.2,149.4z M124.3,148.7v0.6l9.5-5.5v-0.6L124.3,148.7z"/>
				</g>
			</g>
			<g>
				<g>
					<polygon class="st0" points="124.3,150.1 133.9,144.5 133.9,143.8 124.3,149.4 					"/>
				</g>
			</g>
			<g>
				<g>
					<path class="st0" d="M124.2,150.2v-0.8l0,0l9.7-5.6v0.8l0,0L124.2,150.2z M124.3,149.4v0.6l9.5-5.5v-0.6L124.3,149.4z"/>
				</g>
			</g>
			<g>
				<g>
					<polygon class="st0" points="124.3,150.8 133.9,145.2 133.9,144.5 124.3,150.1 					"/>
				</g>
			</g>
			<g>
				<g>
					<path class="st0" d="M124.2,150.9v-0.8l0,0l9.7-5.6v0.8l0,0L124.2,150.9z M124.3,150.1v0.6l9.5-5.5v-0.6L124.3,150.1z"/>
				</g>
			</g>
			<g>
				<g>
					<polygon class="st0" points="128.6,148.1 129.4,147.7 129.4,147.5 128.6,147.9 					"/>
				</g>
			</g>
			<g>
				<g>
					<path class="st0" d="M128.6,148.2v-0.3l0.9-0.5v0.3L128.6,148.2z M128.7,148L128.7,148l0.7-0.3v-0.1L128.7,148z"/>
				</g>
			</g>
			<g>
				<g>
					<polygon class="st0" points="124.3,150.8 133.9,145.3 133.9,148.6 124.3,154.2 					"/>
				</g>
			</g>
			<g class="st3">
				<g>
					<g>
						<g>
							<path class="st0" d="M124.3,150.8c6.8-3.2,6.7-3.4,7.3-3.5c0.7-0.1,2.3,1.4,2.3,1.4l-9.6,5.5V150.8z"/>
						</g>
					</g>
				</g>
			</g>
			<g class="st3">
				<g>
					<defs>
						<rect id="SVGID_1_" x="127.4" y="137.4" width="6.5" height="7.9"/>
					</defs>
					<use xlink:href="#SVGID_1_"  style="overflow:visible;fill:#FFFFFF;"/>
					<clipPath id="SVGID_2_">
						<use xlink:href="#SVGID_1_"  style="overflow:visible;"/>
					</clipPath>
					<g class="st4">
						<g>
							<path class="st0" d="M132.5,139.2c1.2,0.8,1.4,6,1.4,6v-7.9l-6.5,3.8C127.4,141.1,131.4,138.6,132.5,139.2"/>
						</g>
					</g>
					<use xlink:href="#SVGID_1_"  style="overflow:visible;fill:none;stroke:#000000;stroke-miterlimit:10;"/>
				</g>
			</g>
			<g class="st5">
				<g>
					<g>
						<g>
							<path class="st0" d="M125.3,143.3c-0.9,0.8-1,7.5-1,7.5v-7.9l5.2-3C129.4,139.9,126.2,142.4,125.3,143.3"/>
						</g>
					</g>
				</g>
			</g>
		</g>
		<g>
			<g>
				<g>
					<polygon class="st0" points="115.7,159.4 105.8,165.1 104.6,165.8 103.3,166.5 103.3,153.6 115.7,146.5 					"/>
				</g>
			</g>
			<g>
				<g>
					<polygon class="st0" points="104.6,154.4 114.5,148.6 114.5,160.1 104.6,165.8 					"/>
				</g>
			</g>
			<g>
				<g>
					<polygon class="st0" points="104.6,165.8 114.5,160.1 114.5,159.9 104.6,165.6 					"/>
				</g>
			</g>
			<g>
				<g>
					<polygon class="st0" points="114.2,160.2 114.5,160.1 114.5,148.6 114.2,148.8 					"/>
				</g>
			</g>
			<g>
				<g>
					<polygon class="st0" points="104.6,155.1 114.2,149.5 114.2,148.8 104.6,154.4 					"/>
				</g>
			</g>
			<g>
				<g>
					<path class="st0" d="M104.5,155.2v-0.8l0,0l9.7-5.6v0.8l0,0L104.5,155.2z M104.6,154.4v0.6l9.5-5.5v-0.6L104.6,154.4z"/>
				</g>
			</g>
			<g>
				<g>
					<polygon class="st0" points="104.6,155.8 114.2,150.2 114.2,149.5 104.6,155.1 					"/>
				</g>
			</g>
			<g>
				<g>
					<path class="st0" d="M104.5,155.9V155l0,0l9.7-5.6v0.8l0,0L104.5,155.9z M104.6,155.1v0.6l9.5-5.5v-0.6L104.6,155.1z"/>
				</g>
			</g>
			<g>
				<g>
					<polygon class="st0" points="104.6,156.5 114.2,150.9 114.2,150.2 104.6,155.8 					"/>
				</g>
			</g>
			<g>
				<g>
					<path class="st0" d="M104.5,156.6v-0.8l0,0l9.7-5.6v0.8l0,0L104.5,156.6z M104.6,155.8v0.6l9.5-5.5v-0.6L104.6,155.8z"/>
				</g>
			</g>
			<g>
				<g>
					<polygon class="st0" points="104.6,157.2 114.2,151.7 114.2,150.9 104.6,156.5 					"/>
				</g>
			</g>
			<g>
				<g>
					<path class="st0" d="M104.5,157.3v-0.8l0,0l9.7-5.6v0.8l0,0L104.5,157.3z M104.6,156.5v0.6l9.5-5.5V151L104.6,156.5z"/>
				</g>
			</g>
			<g>
				<g>
					<polygon class="st0" points="104.6,157.9 114.2,152.4 114.2,151.6 104.6,157.2 					"/>
				</g>
			</g>
			<g>
				<g>
					<path class="st0" d="M104.5,158v-0.8l0,0l9.7-5.6v0.8l0,0L104.5,158z M104.6,157.2v0.6l9.5-5.5v-0.6L104.6,157.2z"/>
				</g>
			</g>
			<g>
				<g>
					<polygon class="st0" points="104.6,158.6 114.2,153.1 114.2,152.4 104.6,157.9 					"/>
				</g>
			</g>
			<g>
				<g>
					<path class="st0" d="M104.5,158.7v-0.8l0,0l9.7-5.6v0.8l0,0L104.5,158.7z M104.6,158v0.6l9.5-5.5v-0.6L104.6,158z"/>
				</g>
			</g>
			<g>
				<g>
					<polygon class="st0" points="104.6,159.4 114.2,153.8 114.2,153.1 104.6,158.6 					"/>
				</g>
			</g>
			<g>
				<g>
					<path class="st0" d="M104.5,159.4v-0.8l0,0l9.7-5.6v0.8l0,0L104.5,159.4z M104.6,158.7v0.6l9.5-5.5v-0.6L104.6,158.7z"/>
				</g>
			</g>
			<g>
				<g>
					<polygon class="st0" points="104.6,160.1 114.2,154.5 114.2,153.8 104.6,159.3 					"/>
				</g>
			</g>
			<g>
				<g>
					<path class="st0" d="M104.5,160.1v-0.8l0,0l9.7-5.6v0.8l0,0L104.5,160.1z M104.6,159.4v0.6l9.5-5.5v-0.6L104.6,159.4z"/>
				</g>
			</g>
			<g>
				<g>
					<polygon class="st0" points="104.6,160.8 114.2,155.2 114.2,154.5 104.6,160.1 					"/>
				</g>
			</g>
			<g>
				<g>
					<path class="st0" d="M104.5,160.9V160l0,0l9.7-5.6v0.8l0,0L104.5,160.9z M104.6,160.1v0.6l9.5-5.5v-0.6L104.6,160.1z"/>
				</g>
			</g>
			<g>
				<g>
					<polygon class="st0" points="104.6,161.5 114.2,155.9 114.2,155.2 104.6,160.8 					"/>
				</g>
			</g>
			<g>
				<g>
					<path class="st0" d="M104.5,161.6v-0.8l0,0l9.7-5.6v0.8l0,0L104.5,161.6z M104.6,160.8v0.6l9.5-5.5v-0.6L104.6,160.8z"/>
				</g>
			</g>
			<g>
				<g>
					<polygon class="st0" points="104.6,162.2 114.2,156.7 114.2,155.9 104.6,161.5 					"/>
				</g>
			</g>
			<g>
				<g>
					<path class="st0" d="M104.5,162.3v-0.8l0,0l9.7-5.6v0.8l0,0L104.5,162.3z M104.6,161.5v0.6l9.5-5.5V156L104.6,161.5z"/>
				</g>
			</g>
			<g>
				<g>
					<polygon class="st0" points="108.9,159.6 109.7,159.1 109.7,158.9 108.9,159.4 					"/>
				</g>
			</g>
			<g>
				<g>
					<path class="st0" d="M108.9,159.6v-0.3l0.9-0.5v0.3L108.9,159.6z M109,159.4L109,159.4l0.7-0.3V159L109,159.4z"/>
				</g>
			</g>
			<g>
				<g>
					<polygon class="st0" points="104.6,162.2 114.2,156.7 114.2,160.1 104.6,165.6 					"/>
				</g>
			</g>
			<g class="st3">
				<g>
					<g>
						<g>
							<path class="st0" d="M104.6,162.2c6.8-3.2,6.7-3.4,7.3-3.5c0.7-0.1,2.3,1.4,2.3,1.4l-9.6,5.5V162.2z"/>
						</g>
					</g>
				</g>
			</g>
			<g class="st3">
				<g>
					<defs>
						<rect id="SVGID_3_" x="107.7" y="148.8" width="6.5" height="7.9"/>
					</defs>
					<use xlink:href="#SVGID_3_"  style="overflow:visible;fill:#FFFFFF;"/>
					<clipPath id="SVGID_4_">
						<use xlink:href="#SVGID_3_"  style="overflow:visible;"/>
					</clipPath>
					<g class="st6">
						<g>
							<path class="st0" d="M112.8,150.7c1.2,0.8,1.4,6,1.4,6v-7.9l-6.5,3.8C107.7,152.6,111.7,150,112.8,150.7"/>
						</g>
					</g>
					<use xlink:href="#SVGID_3_"  style="overflow:visible;fill:none;stroke:#000000;stroke-miterlimit:10;"/>
				</g>
			</g>
			<g class="st5">
				<g>
					<g>
						<g>
							<path class="st0" d="M105.6,154.7c-0.9,0.8-1,7.5-1,7.5v-7.9l5.2-3C109.7,151.4,106.5,153.8,105.6,154.7"/>
						</g>
					</g>
				</g>
			</g>
		</g>
		<g>
			<g>
				<polygon class="st0" points="54,120.5 101.6,148 101.6,167.9 54,140.4 				"/>
			</g>
		</g>
		<g>
			<g>
				<g>
					<polygon class="st0" points="98.6,152.7 94.4,150.2 94.4,147 98.6,149.4 					"/>
				</g>
			</g>
			<g>
				<g>
					<polygon class="st0" points="95.9,147.9 95.7,147.8 95.7,150.5 95.9,150.6 					"/>
				</g>
			</g>
			<g>
				<g>
					<polygon class="st0" points="95.8,147.8 95.7,147.7 95.7,150.6 95.8,150.7 					"/>
				</g>
			</g>
			<g>
				<g>
					<polygon class="st0" points="97.5,148.8 97.4,148.7 97.4,151.5 97.5,151.6 					"/>
				</g>
			</g>
			<g>
				<g>
					<polygon class="st0" points="98.6,150.7 97.5,150.1 97.5,149.9 98.6,150.6 					"/>
				</g>
			</g>
			<g>
				<g>
					<polygon class="st0" points="97.3,150 95.9,149.2 95.9,149 97.3,149.8 					"/>
				</g>
			</g>
			<g>
				<g>
					<polygon class="st0" points="98.6,150.8 94.8,148.6 94.8,148.4 98.6,150.6 					"/>
				</g>
			</g>
			<g>
				<g>
					<polygon class="st0" points="98.6,152.4 98.6,152.7 94.4,150.2 94.6,150.1 					"/>
				</g>
			</g>
		</g>
		<g>
			<g>
				<g>
					<polygon class="st0" points="92.6,149.3 88.5,146.9 88.5,143.7 92.6,146.1 					"/>
				</g>
			</g>
			<g>
				<g>
					<polygon class="st0" points="92.6,149.1 88.7,146.8 88.7,143.8 92.6,146.1 					"/>
				</g>
			</g>
			<g>
				<g>
					<polygon class="st0" points="92.6,148.9 88.8,146.7 88.8,143.9 92.6,146.1 					"/>
				</g>
			</g>
			<g>
				<g>
					<polygon class="st0" points="92.6,148.8 88.9,146.6 88.9,143.9 92.6,146.1 					"/>
				</g>
			</g>
			<g>
				<g>
					<polygon class="st0" points="89.9,144.5 89.7,144.4 89.7,147.1 89.9,147.2 					"/>
				</g>
			</g>
			<g>
				<g>
					<polygon class="st0" points="89.9,144.5 89.7,144.4 89.7,147.2 89.9,147.3 					"/>
				</g>
			</g>
			<g>
				<g>
					<polygon class="st0" points="91.6,145.5 91.4,145.4 91.4,148.1 91.6,148.2 					"/>
				</g>
			</g>
			<g>
				<g>
					<polygon class="st0" points="91.5,145.4 91.3,145.3 91.3,148.2 91.5,148.3 					"/>
				</g>
			</g>
			<g>
				<g>
					<polygon class="st0" points="92.6,147.4 91.5,146.7 91.5,146.6 92.6,147.2 					"/>
				</g>
			</g>
			<g>
				<g>
					<polygon class="st0" points="91.3,146.6 89.9,145.8 89.9,145.6 91.3,146.5 					"/>
				</g>
			</g>
			<g>
				<g>
					<polygon class="st0" points="92.6,147.4 88.8,145.2 88.8,145.1 92.6,147.3 					"/>
				</g>
			</g>
			<g>
				<g>
					<polygon class="st0" points="92.6,149.1 92.6,149.3 88.5,146.9 88.7,146.8 					"/>
				</g>
			</g>
		</g>
		<g>
			<g>
				<g>
					<polygon class="st0" points="86.8,145.6 82.7,143.2 82.7,140 86.8,142.4 					"/>
				</g>
			</g>
			<g>
				<g>
					<polygon class="st0" points="86.8,145.4 82.9,143.1 82.9,140.1 86.8,142.4 					"/>
				</g>
			</g>
			<g>
				<g>
					<polygon class="st0" points="86.8,145.2 83,143 83,140.2 86.8,142.4 					"/>
				</g>
			</g>
			<g>
				<g>
					<polygon class="st0" points="86.8,145.2 83.1,143 83.1,140.2 86.8,142.4 					"/>
				</g>
			</g>
			<g>
				<g>
					<polygon class="st0" points="84.1,140.8 83.9,140.7 83.9,143.5 84.1,143.6 					"/>
				</g>
			</g>
			<g>
				<g>
					<polygon class="st0" points="84.1,140.8 83.9,140.7 83.9,143.5 84.1,143.6 					"/>
				</g>
			</g>
			<g>
				<g>
					<polygon class="st0" points="85.8,141.8 85.6,141.7 85.6,144.4 85.8,144.5 					"/>
				</g>
			</g>
			<g>
				<g>
					<polygon class="st0" points="85.7,141.8 85.5,141.7 85.5,144.5 85.7,144.6 					"/>
				</g>
			</g>
			<g>
				<g>
					<polygon class="st0" points="86.8,143.7 85.7,143.1 85.7,142.9 86.8,143.5 					"/>
				</g>
			</g>
			<g>
				<g>
					<polygon class="st0" points="85.5,143 84.1,142.1 84.1,142 85.5,142.8 					"/>
				</g>
			</g>
			<g>
				<g>
					<polygon class="st0" points="86.8,143.8 83,141.6 83,141.4 86.8,143.6 					"/>
				</g>
			</g>
			<g>
				<g>
					<polygon class="st0" points="86.8,145.4 86.8,145.6 82.7,143.2 82.9,143.1 					"/>
				</g>
			</g>
		</g>
		<g>
			<g>
				<g>
					<polygon class="st0" points="80.2,141.8 76.1,139.4 76.1,136.2 80.2,138.6 					"/>
				</g>
			</g>
			<g>
				<g>
					<polygon class="st0" points="80.3,141.6 76.3,139.3 76.3,136.3 80.3,138.6 					"/>
				</g>
			</g>
			<g>
				<g>
					<polygon class="st0" points="80.3,141.4 76.4,139.2 76.4,136.4 80.2,138.6 					"/>
				</g>
			</g>
			<g>
				<g>
					<polygon class="st0" points="80.3,141.3 76.5,139.1 76.5,136.4 80.2,138.6 					"/>
				</g>
			</g>
			<g>
				<g>
					<polygon class="st0" points="77.5,137 77.4,136.9 77.4,139.6 77.5,139.7 					"/>
				</g>
			</g>
			<g>
				<g>
					<polygon class="st0" points="77.5,137 77.3,136.9 77.3,139.7 77.5,139.8 					"/>
				</g>
			</g>
			<g>
				<g>
					<polygon class="st0" points="79.2,138 79,137.9 79,140.6 79.2,140.7 					"/>
				</g>
			</g>
			<g>
				<g>
					<polygon class="st0" points="79.1,137.9 79,137.8 79,140.6 79.1,140.8 					"/>
				</g>
			</g>
			<g>
				<g>
					<polygon class="st0" points="80.3,139.9 79.1,139.2 79.1,139 80.3,139.7 					"/>
				</g>
			</g>
			<g>
				<g>
					<polygon class="st0" points="79,139.1 77.5,138.3 77.5,138.1 79,139 					"/>
				</g>
			</g>
			<g>
				<g>
					<polygon class="st0" points="80.3,139.9 76.4,137.7 76.4,137.6 80.3,139.7 					"/>
				</g>
			</g>
			<g>
				<g>
					<polygon class="st0" points="80.3,141.6 80.2,141.8 76.1,139.4 76.3,139.3 					"/>
				</g>
			</g>
		</g>
		<g>
			<g>
				<g>
					<polygon class="st0" points="74.6,138.6 70.4,136.2 70.4,132.9 74.6,135.3 					"/>
				</g>
			</g>
			<g>
				<g>
					<polygon class="st0" points="74.6,138.4 70.6,136.1 70.6,133.1 74.6,135.4 					"/>
				</g>
			</g>
			<g>
				<g>
					<polygon class="st0" points="74.6,138.2 70.8,136 70.8,133.1 74.6,135.3 					"/>
				</g>
			</g>
			<g>
				<g>
					<polygon class="st0" points="74.6,138.1 70.8,135.9 70.8,133.2 74.6,135.3 					"/>
				</g>
			</g>
			<g>
				<g>
					<polygon class="st0" points="71.9,133.8 71.7,133.7 71.7,136.4 71.9,136.5 					"/>
				</g>
			</g>
			<g>
				<g>
					<polygon class="st0" points="71.8,133.7 71.7,133.6 71.7,136.5 71.8,136.6 					"/>
				</g>
			</g>
			<g>
				<g>
					<polygon class="st0" points="73.5,134.7 73.4,134.6 73.4,137.4 73.5,137.5 					"/>
				</g>
			</g>
			<g>
				<g>
					<polygon class="st0" points="73.5,134.7 73.3,134.6 73.3,137.4 73.5,137.5 					"/>
				</g>
			</g>
			<g>
				<g>
					<polygon class="st0" points="74.6,136.7 73.5,136 73.5,135.8 74.6,136.5 					"/>
				</g>
			</g>
			<g>
				<g>
					<polygon class="st0" points="73.3,135.9 71.9,135.1 71.9,134.9 73.3,135.7 					"/>
				</g>
			</g>
			<g>
				<g>
					<polygon class="st0" points="74.6,136.7 70.8,134.5 70.8,134.3 74.6,136.5 					"/>
				</g>
			</g>
			<g>
				<g>
					<polygon class="st0" points="74.6,138.4 74.6,138.6 70.4,136.2 70.6,136.1 					"/>
				</g>
			</g>
		</g>
		<g>
			<g>
				<g>
					<polygon class="st0" points="68.6,135.4 64.5,133 64.5,129.7 68.6,132.2 					"/>
				</g>
			</g>
			<g>
				<g>
					<polygon class="st0" points="68.7,135.2 64.7,132.9 64.7,129.9 68.7,132.2 					"/>
				</g>
			</g>
			<g>
				<g>
					<polygon class="st0" points="68.7,135 64.8,132.8 64.8,129.9 68.6,132.2 					"/>
				</g>
			</g>
			<g>
				<g>
					<polygon class="st0" points="68.7,134.9 64.9,132.7 64.9,130 68.6,132.2 					"/>
				</g>
			</g>
			<g>
				<g>
					<polygon class="st0" points="65.9,130.6 65.8,130.5 65.8,133.2 65.9,133.3 					"/>
				</g>
			</g>
			<g>
				<g>
					<polygon class="st0" points="65.9,130.5 65.7,130.4 65.7,133.3 65.9,133.4 					"/>
				</g>
			</g>
			<g>
				<g>
					<polygon class="st0" points="67.6,131.5 67.4,131.4 67.4,134.2 67.6,134.3 					"/>
				</g>
			</g>
			<g>
				<g>
					<polygon class="st0" points="67.5,131.5 67.4,131.4 67.4,134.2 67.5,134.3 					"/>
				</g>
			</g>
			<g>
				<g>
					<polygon class="st0" points="68.7,133.5 67.5,132.8 67.5,132.6 68.7,133.3 					"/>
				</g>
			</g>
			<g>
				<g>
					<polygon class="st0" points="67.4,132.7 65.9,131.9 65.9,131.7 67.4,132.5 					"/>
				</g>
			</g>
			<g>
				<g>
					<polygon class="st0" points="68.7,133.5 64.8,131.3 64.8,131.1 68.7,133.3 					"/>
				</g>
			</g>
			<g>
				<g>
					<polygon class="st0" points="68.7,135.2 68.6,135.4 64.5,133 64.7,132.9 					"/>
				</g>
			</g>
		</g>
		<g>
			<g>
				<g>
					<polygon class="st0" points="62.5,131.9 58.3,129.5 58.3,126.3 62.5,128.7 					"/>
				</g>
			</g>
			<g>
				<g>
					<polygon class="st0" points="62.5,131.7 58.5,129.4 58.5,126.4 62.5,128.7 					"/>
				</g>
			</g>
			<g>
				<g>
					<polygon class="st0" points="62.5,131.5 58.6,129.3 58.6,126.5 62.5,128.7 					"/>
				</g>
			</g>
			<g>
				<g>
					<polygon class="st0" points="62.5,131.4 58.7,129.2 58.7,126.5 62.5,128.7 					"/>
				</g>
			</g>
			<g>
				<g>
					<polygon class="st0" points="59.7,127.1 59.6,127 59.6,129.7 59.7,129.8 					"/>
				</g>
			</g>
			<g>
				<g>
					<polygon class="st0" points="59.7,127.1 59.5,127 59.5,129.8 59.7,129.9 					"/>
				</g>
			</g>
			<g>
				<g>
					<polygon class="st0" points="61.4,128.1 61.2,128 61.2,130.7 61.4,130.8 					"/>
				</g>
			</g>
			<g>
				<g>
					<polygon class="st0" points="61.3,128 61.2,127.9 61.2,130.8 61.3,130.9 					"/>
				</g>
			</g>
			<g>
				<g>
					<polygon class="st0" points="62.5,130 61.3,129.3 61.3,129.2 62.5,129.8 					"/>
				</g>
			</g>
			<g>
				<g>
					<polygon class="st0" points="61.2,129.2 59.7,128.4 59.7,128.2 61.2,129.1 					"/>
				</g>
			</g>
			<g>
				<g>
					<polygon class="st0" points="62.5,130 58.6,127.8 58.6,127.7 62.5,129.9 					"/>
				</g>
			</g>
			<g>
				<g>
					<polygon class="st0" points="62.5,131.7 62.5,131.9 58.3,129.5 58.5,129.4 					"/>
				</g>
			</g>
		</g>
	</g>
</g>
<g>
	<g class="st1">
		<path d="M49.9,149.4c0.5-0.5,1.2-1,2-1.5c3.6-1.8,8.9-1.7,11.9,0.2c1.6,1,2.2,2.4,1.9,3.7c1.5,0.2,2.9,0.7,4,1.4
			c3,1.9,2.5,5-1,6.8c-0.6,0.3-1.1,0.5-1.8,0.7c0.4,1.6-0.6,3.3-2.9,4.5c-3.6,1.8-8.9,1.7-11.9-0.2c-0.3-0.2-0.5-0.4-0.7-0.6
			c-3.1,1.4-7.3,1.6-10.2,0.4l-6.3,3.2c-0.1,0-0.1,0.1-0.2,0.1c-0.6,0.2-1.5,0-2.1-0.4c-0.7-0.5-0.8-1.1-0.3-1.4l6.3-3.3
			c-1.5-1.8-0.8-4.1,1.9-5.6c-0.2-0.1-0.4-0.2-0.6-0.3c-3-1.9-2.5-5,1-6.8C43.5,149,47,148.7,49.9,149.4z"/>
	</g>
	<g>
		<path class="st0" d="M30.6,154.9h5.1l0,12.5h-0.1c-1.2-4.3-2.7-8.4-5-11.5L30.6,154.9z"/>
	</g>
	<g>
		<polyline class="st0" points="30.6,156 30.4,142.8 35.5,142.8 35.7,167.4 		"/>
	</g>
	<g>
		<path class="st0" d="M30.6,156c0.7,0.9,3.9-0.4,4.9,1.2c0.3,4.9,1.9,10.7-1.8,11.6l-3.1-1.4L30.6,156z"/>
	</g>
	<g>
		<path class="st0" d="M35.7,167.4c0,0.1,0,0.2,0,0.3c-0.1-0.4-0.2-0.8-0.3-1.2C35.5,166.8,35.7,167.1,35.7,167.4z"/>
	</g>
	<g>
		<path class="st0" d="M33.1,165.7c0.9,0,1.7,0.3,2.1,0.8c0.1,0.4,0.2,0.8,0.3,1.2c-0.2,0.8-1.2,1.4-2.5,1.4c-1.4,0-2.5-0.8-2.5-1.7
			C30.6,166.5,31.7,165.7,33.1,165.7z"/>
	</g>
	<g>
		<g>
			
				<ellipse transform="matrix(0.9874 -0.1585 0.1585 0.9874 -21.7153 7.0126)" class="st0" cx="33.1" cy="139.6" rx="0.2" ry="0.4"/>
		</g>
		<g>
			<circle class="st0" cx="33.3" cy="146.8" r="10.6"/>
		</g>
		<g>
			
				<ellipse transform="matrix(7.918745e-02 -0.9969 0.9969 7.918745e-02 -121.4646 171.7574)" class="st0" cx="32.2" cy="151.6" rx="0.4" ry="0.2"/>
		</g>
		<g>
			
				<ellipse transform="matrix(0.9951 -9.905565e-02 9.905565e-02 0.9951 -14.2098 3.9434)" class="st0" cx="32.6" cy="145.1" rx="0.2" ry="0.4"/>
		</g>
		<g>
			
				<ellipse transform="matrix(0.9957 -9.257697e-02 9.257697e-02 0.9957 -12.8215 3.7041)" class="st0" cx="33.5" cy="140" rx="0.2" ry="0.4"/>
		</g>
		<g>
			<ellipse transform="matrix(0.9872 -0.1593 0.1593 0.9872 -23.157 7.5745)" class="st0" cx="35.7" cy="148.2" rx="0.2" ry="0.4"/>
		</g>
		<g>
			
				<ellipse transform="matrix(0.9871 -0.1599 0.1599 0.9871 -22.3356 7.7257)" class="st0" cx="36.9" cy="142.7" rx="0.2" ry="0.4"/>
		</g>
		<g>
			
				<ellipse transform="matrix(0.3779 -0.9258 0.9258 0.3779 -120.4073 129.048)" class="st0" cx="35.8" cy="154.1" rx="0.4" ry="0.2"/>
		</g>
		<g>
			
				<ellipse transform="matrix(0.2232 -0.9748 0.9748 0.2232 -114.9325 154.5161)" class="st0" cx="39.5" cy="149.4" rx="0.4" ry="0.1"/>
		</g>
		<g>
			
				<ellipse transform="matrix(7.478581e-02 -0.9972 0.9972 7.478581e-02 -121.1523 166.5077)" class="st0" cx="29.2" cy="148.5" rx="0.4" ry="0.2"/>
		</g>
		<g>
			
				<ellipse transform="matrix(7.532676e-02 -0.9972 0.9972 7.532676e-02 -113.8633 160.9495)" class="st0" cx="29.9" cy="141.9" rx="0.4" ry="0.2"/>
		</g>
		<g>
			
				<ellipse transform="matrix(7.539944e-02 -0.9972 0.9972 7.539944e-02 -121.6953 159.7269)" class="st0" cx="25.3" cy="145.5" rx="0.4" ry="0.2"/>
		</g>
		<g>
			
				<ellipse transform="matrix(7.496000e-02 -0.9972 0.9972 7.496000e-02 -127.3308 170.9825)" class="st0" cx="28.5" cy="154.1" rx="0.4" ry="0.2"/>
		</g>
		<g>
			<ellipse transform="matrix(0.913 -0.4079 0.4079 0.913 -55.3105 29.8894)" class="st0" cx="42.4" cy="144.7" rx="0.2" ry="0.4"/>
		</g>
		<g>
			
				<ellipse transform="matrix(0.2808 -0.9598 0.9598 0.2808 -118.5183 149.2642)" class="st0" cx="40.3" cy="153.7" rx="0.4" ry="0.2"/>
		</g>
		<g>
			
				<ellipse transform="matrix(0.2781 -0.9606 0.9606 0.2781 -110.9205 148.0105)" class="st0" cx="43" cy="147.8" rx="0.4" ry="0.2"/>
		</g>
		<g>
			
				<ellipse transform="matrix(0.4347 -0.9006 0.9006 0.4347 -103.5819 112.9973)" class="st0" cx="38.2" cy="139" rx="0.2" ry="0.4"/>
		</g>
		<g>
			<ellipse transform="matrix(0.884 -0.4675 0.4675 0.884 -61.2235 29.6619)" class="st0" cx="29.2" cy="138.2" rx="0.4" ry="0.2"/>
		</g>
	</g>
	<g>
		<g>
			
				<ellipse transform="matrix(0.9874 -0.1585 0.1585 0.9874 -20.2731 5.0398)" class="st0" cx="21.5" cy="129.6" rx="0.2" ry="0.4"/>
		</g>
		<g>
			<circle class="st0" cx="21.7" cy="136.8" r="10.6"/>
		</g>
		<g>
			<circle class="st0" cx="20.6" cy="137.5" r="9.3"/>
		</g>
		<g>
			
				<ellipse transform="matrix(7.928552e-02 -0.9969 0.9969 7.928552e-02 -122.2211 150.94)" class="st0" cx="20.6" cy="141.6" rx="0.4" ry="0.2"/>
		</g>
		<g>
			
				<ellipse transform="matrix(0.9953 -9.640443e-02 9.640443e-02 0.9953 -12.9245 2.6505)" class="st0" cx="21" cy="135.1" rx="0.2" ry="0.4"/>
		</g>
		<g>
			
				<ellipse transform="matrix(0.9956 -9.325254e-02 9.325254e-02 0.9956 -12.0328 2.6066)" class="st0" cx="21.9" cy="130.1" rx="0.2" ry="0.4"/>
		</g>
		<g>
			<ellipse transform="matrix(0.9868 -0.1618 0.1618 0.9868 -22.0402 5.7055)" class="st0" cx="24" cy="138.2" rx="0.1" ry="0.4"/>
		</g>
		<g>
			
				<ellipse transform="matrix(0.9873 -0.1588 0.1588 0.9873 -20.7488 5.6864)" class="st0" cx="25.2" cy="132.7" rx="0.2" ry="0.4"/>
		</g>
		<g>
			
				<ellipse transform="matrix(0.3807 -0.9247 0.9247 0.3807 -118.2978 111.6207)" class="st0" cx="24.2" cy="144.1" rx="0.4" ry="0.2"/>
		</g>
		<g>
			
				<ellipse transform="matrix(0.2218 -0.9751 0.9751 0.2218 -114.2394 135.6004)" class="st0" cx="27.8" cy="139.4" rx="0.4" ry="0.2"/>
		</g>
		<g>
			
				<ellipse transform="matrix(7.777313e-02 -0.997 0.997 7.777313e-02 -121.9776 145.2368)" class="st0" cx="17.5" cy="138.6" rx="0.4" ry="0.2"/>
		</g>
		<g>
			
				<ellipse transform="matrix(7.270800e-02 -0.9974 0.9974 7.270800e-02 -114.6375 140.4529)" class="st0" cx="18.2" cy="131.9" rx="0.4" ry="0.2"/>
		</g>
		<g>
			
				<ellipse transform="matrix(7.528598e-02 -0.9972 0.9972 7.528598e-02 -122.4905 138.8982)" class="st0" cx="13.6" cy="135.5" rx="0.4" ry="0.2"/>
		</g>
		<g>
			
				<ellipse transform="matrix(7.652929e-02 -0.9971 0.9971 7.652929e-02 -128.1427 149.9036)" class="st0" cx="16.9" cy="144.1" rx="0.4" ry="0.1"/>
		</g>
		<g>
			
				<ellipse transform="matrix(0.9102 -0.4142 0.4142 0.9102 -53.0114 24.8527)" class="st0" cx="30.8" cy="134.7" rx="0.2" ry="0.4"/>
		</g>
		<g>
			
				<ellipse transform="matrix(0.2813 -0.9596 0.9596 0.2813 -117.2907 130.8266)" class="st0" cx="28.7" cy="143.7" rx="0.4" ry="0.2"/>
		</g>
		<g>
			
				<ellipse transform="matrix(0.278 -0.9606 0.9606 0.278 -109.7247 129.6185)" class="st0" cx="31.4" cy="137.8" rx="0.4" ry="0.2"/>
		</g>
		<g>
			
				<ellipse transform="matrix(0.4332 -0.9013 0.9013 0.4332 -101.2137 97.0775)" class="st0" cx="26.6" cy="129" rx="0.2" ry="0.4"/>
		</g>
		<g>
			
				<ellipse transform="matrix(0.8854 -0.4648 0.4648 0.8854 -57.5733 22.8265)" class="st0" cx="17.5" cy="128.2" rx="0.4" ry="0.2"/>
		</g>
	</g>
	<g>
		<g>
			<ellipse transform="matrix(0.9872 -0.1597 0.1597 0.9872 -20.13 8.8917)" class="st0" cx="45.2" cy="129.6" rx="0.2" ry="0.4"/>
		</g>
		<g>
			<circle class="st0" cx="45.5" cy="136.8" r="10.6"/>
		</g>
		<g>
			
				<ellipse transform="matrix(7.889005e-02 -0.9969 0.9969 7.889005e-02 -100.3212 174.6941)" class="st0" cx="44.4" cy="141.6" rx="0.4" ry="0.2"/>
		</g>
		<g>
			
				<ellipse transform="matrix(0.9954 -9.624410e-02 9.624410e-02 0.9954 -12.7928 4.9331)" class="st0" cx="44.7" cy="135.1" rx="0.2" ry="0.4"/>
		</g>
		<g>
			
				<ellipse transform="matrix(0.9956 -9.370551e-02 9.370551e-02 0.9956 -11.9862 4.8496)" class="st0" cx="45.6" cy="130.1" rx="0.1" ry="0.4"/>
		</g>
		<g>
			<ellipse transform="matrix(0.987 -0.161 0.161 0.987 -21.6227 9.4943)" class="st0" cx="47.8" cy="138.2" rx="0.2" ry="0.4"/>
		</g>
		<g>
			<ellipse transform="matrix(0.9873 -0.159 0.159 0.9873 -20.4801 9.479)" class="st0" cx="49" cy="132.7" rx="0.2" ry="0.4"/>
		</g>
		<g>
			
				<ellipse transform="matrix(0.3807 -0.9247 0.9247 0.3807 -103.5763 133.6022)" class="st0" cx="48" cy="144.1" rx="0.4" ry="0.2"/>
		</g>
		<g>
			
				<ellipse transform="matrix(0.2226 -0.9749 0.9749 0.2226 -95.7545 158.6709)" class="st0" cx="51.6" cy="139.4" rx="0.4" ry="0.1"/>
		</g>
		<g>
			
				<ellipse transform="matrix(7.739805e-02 -0.997 0.997 7.739805e-02 -100.0421 168.9909)" class="st0" cx="41.3" cy="138.6" rx="0.4" ry="0.2"/>
		</g>
		<g>
			
				<ellipse transform="matrix(7.295123e-02 -0.9973 0.9973 7.295123e-02 -92.6029 164.1279)" class="st0" cx="42" cy="131.9" rx="0.4" ry="0.2"/>
		</g>
		<g>
			
				<ellipse transform="matrix(7.516032e-02 -0.9972 0.9972 7.516032e-02 -100.5063 162.6185)" class="st0" cx="37.4" cy="135.5" rx="0.4" ry="0.2"/>
		</g>
		<g>
			
				<ellipse transform="matrix(7.579206e-02 -0.9971 0.9971 7.579206e-02 -106.1679 173.7148)" class="st0" cx="40.6" cy="144.1" rx="0.4" ry="0.2"/>
		</g>
		<g>
			<ellipse transform="matrix(0.911 -0.4124 0.4124 0.911 -50.6758 34.4877)" class="st0" cx="54.6" cy="134.7" rx="0.2" ry="0.4"/>
		</g>
		<g>
			
				<ellipse transform="matrix(0.2831 -0.9591 0.9591 0.2831 -100.2245 153.3568)" class="st0" cx="52.5" cy="143.7" rx="0.4" ry="0.2"/>
		</g>
		<g>
			
				<ellipse transform="matrix(0.2768 -0.9609 0.9609 0.2768 -92.5426 152.6512)" class="st0" cx="55.1" cy="137.8" rx="0.4" ry="0.2"/>
		</g>
		<g>
			
				<ellipse transform="matrix(0.4318 -0.9019 0.9019 0.4318 -87.7561 118.7088)" class="st0" cx="50.3" cy="129" rx="0.2" ry="0.4"/>
		</g>
		<g>
			<ellipse transform="matrix(0.882 -0.4712 0.4712 0.882 -55.5307 34.5733)" class="st0" cx="41.3" cy="128.2" rx="0.4" ry="0.2"/>
		</g>
	</g>
	<g>
		<g>
			<ellipse transform="matrix(0.987 -0.1606 0.1606 0.987 -18.4187 8.0277)" class="st0" cx="40.5" cy="118" rx="0.2" ry="0.4"/>
		</g>
		<g>
			<circle class="st0" cx="40.7" cy="125.2" r="10.6"/>
		</g>
		<g>
			
				<ellipse transform="matrix(8.068132e-02 -0.9967 0.9967 8.068132e-02 -93.1492 158.9642)" class="st0" cx="39.6" cy="130" rx="0.4" ry="0.2"/>
		</g>
		<g>
			<ellipse transform="matrix(0.9949 -0.1004 0.1004 0.9949 -12.1874 4.6356)" class="st0" cx="40" cy="123.4" rx="0.2" ry="0.4"/>
		</g>
		<g>
			
				<ellipse transform="matrix(0.9955 -9.505434e-02 9.505434e-02 0.9955 -11.0695 4.4216)" class="st0" cx="40.9" cy="118.4" rx="0.2" ry="0.4"/>
		</g>
		<g>
			<ellipse transform="matrix(0.9867 -0.1623 0.1623 0.9867 -19.9704 8.6607)" class="st0" cx="43" cy="126.6" rx="0.2" ry="0.4"/>
		</g>
		<g>
			<ellipse transform="matrix(0.9867 -0.1623 0.1623 0.9867 -19.0597 8.7812)" class="st0" cx="44.2" cy="121" rx="0.2" ry="0.4"/>
		</g>
		<g>
			
				<ellipse transform="matrix(0.3792 -0.9253 0.9253 0.3792 -95.7708 122.208)" class="st0" cx="43.2" cy="132.5" rx="0.4" ry="0.2"/>
		</g>
		<g>
			
				<ellipse transform="matrix(0.2238 -0.9746 0.9746 0.2238 -88.1233 144.7795)" class="st0" cx="46.8" cy="127.7" rx="0.4" ry="0.1"/>
		</g>
		<g>
			
				<ellipse transform="matrix(7.401259e-02 -0.9973 0.9973 7.401259e-02 -92.7325 153.9205)" class="st0" cx="36.5" cy="126.9" rx="0.4" ry="0.2"/>
		</g>
		<g>
			
				<ellipse transform="matrix(7.599248e-02 -0.9971 0.9971 7.599248e-02 -85.4872 148.1919)" class="st0" cx="37.2" cy="120.2" rx="0.4" ry="0.2"/>
		</g>
		<g>
			
				<ellipse transform="matrix(7.682449e-02 -0.997 0.997 7.682449e-02 -93.3344 146.8732)" class="st0" cx="32.6" cy="123.8" rx="0.4" ry="0.2"/>
		</g>
		<g>
			
				<ellipse transform="matrix(7.409297e-02 -0.9973 0.9973 7.409297e-02 -98.9108 158.4167)" class="st0" cx="35.9" cy="132.5" rx="0.4" ry="0.2"/>
		</g>
		<g>
			<ellipse transform="matrix(0.9116 -0.4112 0.4112 0.9116 -46.1745 31.3579)" class="st0" cx="49.8" cy="123" rx="0.2" ry="0.4"/>
		</g>
		<g>
			
				<ellipse transform="matrix(0.2793 -0.9602 0.9602 0.2793 -92.4323 140.9788)" class="st0" cx="47.7" cy="132.1" rx="0.4" ry="0.2"/>
		</g>
		<g>
			
				<ellipse transform="matrix(0.2771 -0.9608 0.9608 0.2771 -84.7975 139.592)" class="st0" cx="50.4" cy="126.1" rx="0.4" ry="0.2"/>
		</g>
		<g>
			
				<ellipse transform="matrix(0.4306 -0.9026 0.9026 0.4306 -79.9677 107.9636)" class="st0" cx="45.6" cy="117.4" rx="0.2" ry="0.4"/>
		</g>
		<g>
			
				<ellipse transform="matrix(0.8815 -0.4721 0.4721 0.8815 -50.6944 31.0451)" class="st0" cx="36.5" cy="116.5" rx="0.4" ry="0.2"/>
		</g>
	</g>
	<g>
		<g>
			<ellipse transform="matrix(0.987 -0.161 0.161 0.987 -18.3537 5.826)" class="st0" cx="26.8" cy="116.2" rx="0.2" ry="0.4"/>
		</g>
		<g>
			<circle class="st0" cx="27" cy="123.3" r="10.6"/>
		</g>
		<g>
			
				<ellipse transform="matrix(7.931954e-02 -0.9968 0.9968 7.931954e-02 -103.9092 143.8337)" class="st0" cx="25.9" cy="128.2" rx="0.4" ry="0.2"/>
		</g>
		<g>
			
				<ellipse transform="matrix(0.9951 -9.839918e-02 9.839918e-02 0.9951 -11.8393 3.1761)" class="st0" cx="26.3" cy="121.6" rx="0.2" ry="0.4"/>
		</g>
		<g>
			
				<ellipse transform="matrix(0.9955 -9.474590e-02 9.474590e-02 0.9955 -10.9243 3.1004)" class="st0" cx="27.2" cy="116.6" rx="0.2" ry="0.4"/>
		</g>
		<g>
			<ellipse transform="matrix(0.9868 -0.1617 0.1617 0.9868 -19.7891 6.386)" class="st0" cx="29.3" cy="124.7" rx="0.1" ry="0.4"/>
		</g>
		<g>
			
				<ellipse transform="matrix(0.9868 -0.1618 0.1618 0.9868 -18.8895 6.5099)" class="st0" cx="30.5" cy="119.2" rx="0.2" ry="0.4"/>
		</g>
		<g>
			
				<ellipse transform="matrix(0.3805 -0.9248 0.9248 0.3805 -102.5629 108.2244)" class="st0" cx="29.5" cy="130.7" rx="0.4" ry="0.2"/>
		</g>
		<g>
			
				<ellipse transform="matrix(0.2206 -0.9754 0.9754 0.2206 -96.9709 130.4677)" class="st0" cx="33.1" cy="125.9" rx="0.4" ry="0.2"/>
		</g>
		<g>
			
				<ellipse transform="matrix(7.658167e-02 -0.9971 0.9971 7.658167e-02 -103.6395 138.2672)" class="st0" cx="22.8" cy="125.1" rx="0.4" ry="0.2"/>
		</g>
		<g>
			
				<ellipse transform="matrix(7.682449e-02 -0.997 0.997 7.682449e-02 -96.3438 132.771)" class="st0" cx="23.5" cy="118.4" rx="0.4" ry="0.2"/>
		</g>
		<g>
			
				<ellipse transform="matrix(7.586586e-02 -0.9971 0.9971 7.586586e-02 -104.1593 131.6726)" class="st0" cx="19" cy="122" rx="0.4" ry="0.2"/>
		</g>
		<g>
			
				<ellipse transform="matrix(7.562643e-02 -0.9971 0.9971 7.562643e-02 -109.8015 142.8858)" class="st0" cx="22.2" cy="130.7" rx="0.4" ry="0.2"/>
		</g>
		<g>
			
				<ellipse transform="matrix(0.9114 -0.4116 0.4116 0.9114 -46.6866 25.6081)" class="st0" cx="36.1" cy="121.2" rx="0.2" ry="0.4"/>
		</g>
		<g>
			<ellipse transform="matrix(0.2793 -0.9602 0.9602 0.2793 -100.5611 126.53)" class="st0" cx="34" cy="130.3" rx="0.4" ry="0.2"/>
		</g>
		<g>
			
				<ellipse transform="matrix(0.2778 -0.9607 0.9607 0.2778 -92.9561 125.0398)" class="st0" cx="36.7" cy="124.3" rx="0.4" ry="0.2"/>
		</g>
		<g>
			
				<ellipse transform="matrix(0.4355 -0.9002 0.9002 0.4355 -86.0146 93.9373)" class="st0" cx="31.9" cy="115.5" rx="0.2" ry="0.4"/>
		</g>
		<g>
			
				<ellipse transform="matrix(0.8841 -0.4673 0.4673 0.8841 -50.9693 23.9653)" class="st0" cx="22.8" cy="114.7" rx="0.4" ry="0.2"/>
		</g>
	</g>
	<g>
		<g>
			
				<ellipse transform="matrix(0.9867 -0.1623 0.1623 0.9867 -20.8736 6.6497)" class="st0" cx="30.3" cy="131.1" rx="0.2" ry="0.4"/>
		</g>
		<g>
			<circle class="st0" cx="30.5" cy="138.2" r="10.6"/>
		</g>
		<g>
			
				<ellipse transform="matrix(8.015090e-02 -0.9968 0.9968 8.015090e-02 -115.5672 160.9028)" class="st0" cx="29.4" cy="143.1" rx="0.4" ry="0.2"/>
		</g>
		<g>
			
				<ellipse transform="matrix(0.9951 -9.889071e-02 9.889071e-02 0.9951 -13.3539 3.6126)" class="st0" cx="29.8" cy="136.5" rx="0.2" ry="0.4"/>
		</g>
		<g>
			
				<ellipse transform="matrix(0.9958 -9.174550e-02 9.174550e-02 0.9958 -11.9344 3.3685)" class="st0" cx="30.7" cy="131.5" rx="0.2" ry="0.4"/>
		</g>
		<g>
			<ellipse transform="matrix(0.987 -0.1607 0.1607 0.987 -22.0105 7.0869)" class="st0" cx="32.8" cy="139.6" rx="0.2" ry="0.4"/>
		</g>
		<g>
			<ellipse transform="matrix(0.9872 -0.1596 0.1596 0.9872 -20.97 7.1466)" class="st0" cx="34" cy="134.1" rx="0.2" ry="0.4"/>
		</g>
		<g>
			
				<ellipse transform="matrix(0.3773 -0.9261 0.9261 0.3773 -114.2667 121.1821)" class="st0" cx="33" cy="145.6" rx="0.4" ry="0.2"/>
		</g>
		<g>
			
				<ellipse transform="matrix(0.225 -0.9744 0.9744 0.225 -108.8057 144.8179)" class="st0" cx="36.6" cy="140.8" rx="0.4" ry="0.2"/>
		</g>
		<g>
			
				<ellipse transform="matrix(7.503507e-02 -0.9972 0.9972 7.503507e-02 -115.252 155.7184)" class="st0" cx="26.3" cy="140" rx="0.4" ry="0.2"/>
		</g>
		<g>
			
				<ellipse transform="matrix(7.628621e-02 -0.9971 0.9971 7.628621e-02 -107.9728 150.0717)" class="st0" cx="27" cy="133.3" rx="0.4" ry="0.2"/>
		</g>
		<g>
			
				<ellipse transform="matrix(7.875079e-02 -0.9969 0.9969 7.875079e-02 -115.8288 148.5148)" class="st0" cx="22.4" cy="136.9" rx="0.4" ry="0.2"/>
		</g>
		<g>
			
				<ellipse transform="matrix(7.562643e-02 -0.9971 0.9971 7.562643e-02 -121.4362 160.132)" class="st0" cx="25.7" cy="145.6" rx="0.4" ry="0.2"/>
		</g>
		<g>
			
				<ellipse transform="matrix(0.9108 -0.4129 0.4129 0.9108 -52.6654 28.4961)" class="st0" cx="39.6" cy="136.1" rx="0.2" ry="0.4"/>
		</g>
		<g>
			
				<ellipse transform="matrix(0.2796 -0.9601 0.9601 0.2796 -112.3542 140.5679)" class="st0" cx="37.5" cy="145.2" rx="0.4" ry="0.2"/>
		</g>
		<g>
			
				<ellipse transform="matrix(0.2773 -0.9608 0.9608 0.2773 -104.7515 139.2146)" class="st0" cx="40.2" cy="139.2" rx="0.4" ry="0.2"/>
		</g>
		<g>
			
				<ellipse transform="matrix(0.4339 -0.901 0.901 0.4339 -97.5014 105.7122)" class="st0" cx="35.4" cy="130.4" rx="0.2" ry="0.4"/>
		</g>
		<g>
			
				<ellipse transform="matrix(0.8863 -0.4631 0.4631 0.8863 -57.0399 26.9225)" class="st0" cx="26.3" cy="129.6" rx="0.4" ry="0.2"/>
		</g>
	</g>
</g>
<g>
	<g class="st1">
		<path d="M95.9,170.7c-0.3,0.6-0.7,1.2-0.8,1.5c-0.4,0.8-0.7,2-1.5,2.8c-1.4,1.2-3,2-3.8,2.5c-1.3,0.7-3.3,1.5-4.4,2
			c-0.5,0.2-1.9,0.8-1.9,0.8c-0.8,0.4-0.7,1.2,0.2,1.8c0,0,0,0,0,0c0,0,0,0,0,0c0.7,0.5,1.7,0.6,2.4,0.5c0.2,0,0.4-0.1,0.6-0.2
			c0.1,0,0.2-0.1,0.3-0.2c0.4-0.2,1-0.7,1.3-0.8c1.5-0.9,3.7-1.9,5.3-2.6c0.8-0.4,4-1.5,4.9-1.8c1.8-0.5,4.3-0.5,5.7-0.7
			c0,0,0,0,0.1,0c0.2,0.1,0.3,0.3,0.5,0.4c3,1.9,10.3,1,16.3-2.1c4.8-2.4,7.2-5.5,6.6-7.6c5-3,6.9-6.6,4.1-8.4
			c-1.8-1.1-5-1.3-8.6-0.6c-0.2-0.2-0.5-0.5-0.8-0.7c-3.7-2.4-12.5-1.2-19.8,2.5C95.6,163.5,92.6,168.3,95.9,170.7z M99.9,172
			c1.4,0.2,3.1,0.1,4.9-0.1c-0.5,0.6-0.8,1.2-0.9,1.8c-0.4,0.1-1.3,0.2-1.7,0.3c0,0,0,0,0,0c-0.6,0-1.6,0-2-0.3
			c-0.3-0.2-0.3-0.6-0.3-0.9c0,0,0,0,0,0C99.8,172.5,99.8,172.2,99.9,172z"/>
	</g>
	<g>
		<path class="st0" d="M76.6,157.8c0,0,1.2,1.5,1.6,1.8c0.7,0.6,2,1.4,2.8,1.8c0,0,0.1,0,0.1,0c0.6,0.3,1.5,0.8,2.3,0.8
			c1.3,0.1,2.5-0.6,3.1-1.1c0,0,0,0,0,0c0.4-0.3,1.1-1.1,1.3-1.5c0.7-0.9,1.5-4.2,1.5-4.2h4.8H97l-2.5,6.3c0,0-0.2,0.3-0.3,0.4
			c-1.2,1.3-4.1,3.1-5.1,4.9c-0.5,0.9-1.6,4.5-1.7,5.5c-0.1,2.1-0.4,4.7-0.2,6.8c0,0.4,0.2,1.3,0.4,1.8c0.1,0.1,0.1,0.2,0.1,0.4
			c0,0.2-0.1,0.5-0.3,0.7c-0.6,0.7-2.1,1.2-3.9,1.2c-2.3,0-4.2-0.8-4.2-1.8c0,0,0.3-1.6,0.5-2.2c0.3-1.3,0.7-3.6,0.7-5.3
			c0-1,0-3.1-1.1-5.5c-0.7-1.4-3.1-3-4.5-4.2c-1.4-1.2-6.3-6-6.3-6L76.6,157.8z"/>
	</g>
	<g>
		<path class="st0" d="M80.9,161.5c0.6,0.3,1.5,0.8,2.3,0.8c1.3,0.1,2.5-0.6,3.1-1.1c0,0,0,0,0,0v0.5c-2.9,0,0,2.9-1.5,4.4
			C84.9,163.6,81.9,163.2,80.9,161.5C80.9,161.5,80.9,161.5,80.9,161.5z"/>
	</g>
	<g>
		<path class="st0" d="M76.5,157.8c0,0,1.2,1.5,1.6,1.8c0.7,0.6,2,1.4,2.8,1.8c1,1.8,4.1,2.2,4.1,4.7c1.5-1.5-1.5-4.4,1.5-4.4v-0.5
			c0.4-0.3,1.1-1.1,1.3-1.5c0.7-0.9,1.5-4.2,1.5-4.2h4.8c-6.5,7.3-7.8,17.6-9.1,26.8c0.6-0.6,1.5-0.5,2.3-0.1
			c-0.6,0.7-2.1,1.2-3.9,1.2c-2.3,0-4.2-0.8-4.2-1.8c0,0,0.3-1.6,0.5-2.2c0.3-1.3,0.7-3.6,0.7-5.3c0-1,0-3.1-1.1-5.5
			c-0.7-1.4-3.1-3-4.5-4.2c-1.4-1.2-6.3-6-6.3-6L76.5,157.8z"/>
	</g>
	<g>
		<path class="st0" d="M84.9,182.3c1.3-9.1,2.6-19.5,9.1-26.8h2.8l-2.5,6.3c0,0-0.2,0.3-0.3,0.4c-1.2,1.3-4.1,3.1-5.1,4.9
			c-0.5,0.9-1.6,4.5-1.7,5.5c-0.1,2.1-0.4,4.7-0.2,6.8c0,0.4,0.2,1.3,0.4,1.8c0.1,0.1,0.1,0.2,0.1,0.4c0,0.2-0.1,0.5-0.3,0.7
			C86.4,181.8,85.6,181.6,84.9,182.3z"/>
	</g>
	<g>
		<path class="st0" d="M81.1,169c0.1,1.4,0.3,2.5,0.3,2.5c0.1,0,0-1.1-0.1-2.5c-0.1-1.4-0.3-2.5-0.3-2.5
			C80.9,166.5,81,167.7,81.1,169z"/>
	</g>
	<g>
		<path class="st0" d="M87,165.4c-0.3,1.4-0.5,2.5-0.4,2.5c0.1,0,0.4-1.1,0.7-2.4c0.3-1.4,0.5-2.5,0.4-2.5
			C87.6,163,87.3,164.1,87,165.4z"/>
	</g>
	<g>
		<path class="st0" d="M83.2,167.5c0,0.8,0,1.5,0.1,1.5c0,0,0.1-0.7,0.1-1.5c0-0.8,0-1.5-0.1-1.5C83.2,166,83.2,166.6,83.2,167.5z"
			/>
	</g>
	<g>
		<path class="st0" d="M78.6,164.7c0.3,0.8,0.5,1.4,0.5,1.4c0,0-0.1-0.7-0.4-1.5c-0.3-0.8-0.5-1.4-0.5-1.4
			C78.2,163.2,78.4,163.9,78.6,164.7z"/>
	</g>
	<g>
		<line class="st0" x1="86.4" y1="160.6" x2="94.4" y2="161.8"/>
	</g>
	<g>
		<ellipse class="st0" cx="72.3" cy="157.8" rx="4.2" ry="1.8"/>
	</g>
	<g>
		<ellipse class="st0" cx="93.1" cy="155.5" rx="3.8" ry="1.6"/>
	</g>
	<g>
		<g>
			
				<ellipse transform="matrix(0.9866 -0.1631 0.1631 0.9866 -21.3563 17.4308)" class="st0" cx="95.5" cy="138.8" rx="0.2" ry="0.5"/>
		</g>
		<g>
			<circle class="st0" cx="95.8" cy="148.2" r="14"/>
		</g>
		<g>
			
				<ellipse transform="matrix(7.990105e-02 -0.9968 0.9968 7.990105e-02 -67.3289 236.2627)" class="st0" cx="94.3" cy="154.6" rx="0.5" ry="0.2"/>
		</g>
		<g>
			<ellipse transform="matrix(0.995 -0.1003 0.1003 0.995 -14.1549 10.2409)" class="st0" cx="94.8" cy="145.9" rx="0.2" ry="0.5"/>
		</g>
		<g>
			
				<ellipse transform="matrix(0.9956 -9.366074e-02 9.366074e-02 0.9956 -12.6248 9.6039)" class="st0" cx="96" cy="139.3" rx="0.2" ry="0.5"/>
		</g>
		<g>
			<ellipse transform="matrix(0.9873 -0.159 0.159 0.9873 -22.6121 17.6305)" class="st0" cx="98.8" cy="150.1" rx="0.2" ry="0.5"/>
		</g>
		<g>
			
				<ellipse transform="matrix(0.9872 -0.1597 0.1597 0.9872 -21.5113 17.8651)" class="st0" cx="100.4" cy="142.8" rx="0.2" ry="0.5"/>
		</g>
		<g>
			
				<ellipse transform="matrix(0.3803 -0.9249 0.9249 0.3803 -84.6527 189.4587)" class="st0" cx="99.1" cy="157.9" rx="0.5" ry="0.2"/>
		</g>
		<g>
			
				<ellipse transform="matrix(0.225 -0.9744 0.9744 0.225 -67.2199 218.7164)" class="st0" cx="103.9" cy="151.6" rx="0.5" ry="0.2"/>
		</g>
		<g>
			
				<ellipse transform="matrix(7.418641e-02 -0.9972 0.9972 7.418641e-02 -66.5672 229.3486)" class="st0" cx="90.2" cy="150.5" rx="0.5" ry="0.2"/>
		</g>
		<g>
			
				<ellipse transform="matrix(7.640540e-02 -0.9971 0.9971 7.640540e-02 -57.0937 221.771)" class="st0" cx="91.2" cy="141.7" rx="0.5" ry="0.2"/>
		</g>
		<g>
			
				<ellipse transform="matrix(7.606401e-02 -0.9971 0.9971 7.606401e-02 -67.4138 220.2168)" class="st0" cx="85.1" cy="146.5" rx="0.5" ry="0.2"/>
		</g>
		<g>
			
				<ellipse transform="matrix(7.418641e-02 -0.9972 0.9972 7.418641e-02 -74.731 235.3045)" class="st0" cx="89.4" cy="157.9" rx="0.5" ry="0.2"/>
		</g>
		<g>
			
				<ellipse transform="matrix(0.9109 -0.4127 0.4127 0.9109 -50.39 57.4409)" class="st0" cx="107.8" cy="145.4" rx="0.2" ry="0.5"/>
		</g>
		<g>
			<ellipse transform="matrix(0.273 -0.962 0.962 0.273 -75.0355 215.4144)" class="st0" cx="105" cy="157.4" rx="0.5" ry="0.2"/>
		</g>
		<g>
			
				<ellipse transform="matrix(0.2762 -0.9611 0.9611 0.2762 -65.1549 212.566)" class="st0" cx="108.5" cy="149.5" rx="0.5" ry="0.2"/>
		</g>
		<g>
			
				<ellipse transform="matrix(0.4369 -0.8995 0.8995 0.4369 -66.5003 169.6015)" class="st0" cx="102.2" cy="137.9" rx="0.2" ry="0.5"/>
		</g>
		<g>
			
				<ellipse transform="matrix(0.8842 -0.4672 0.4672 0.8842 -53.473 58.0038)" class="st0" cx="90.2" cy="136.8" rx="0.5" ry="0.2"/>
		</g>
	</g>
	<g>
		<g>
			<ellipse transform="matrix(0.987 -0.1606 0.1606 0.987 -19.3131 15.4818)" class="st0" cx="86.1" cy="127.2" rx="0.2" ry="0.5"/>
		</g>
		<g>
			<circle class="st0" cx="86.4" cy="136.7" r="14"/>
		</g>
		<g>
			
				<ellipse transform="matrix(7.933626e-02 -0.9968 0.9968 7.933626e-02 -64.3735 216.3864)" class="st0" cx="85" cy="143" rx="0.5" ry="0.2"/>
		</g>
		<g>
			<ellipse transform="matrix(0.995 -0.1001 0.1001 0.995 -13.0249 9.2302)" class="st0" cx="85.4" cy="134.4" rx="0.2" ry="0.5"/>
		</g>
		<g>
			
				<ellipse transform="matrix(0.9956 -9.407237e-02 9.407237e-02 0.9956 -11.6326 8.7173)" class="st0" cx="86.6" cy="127.7" rx="0.2" ry="0.5"/>
		</g>
		<g>
			
				<ellipse transform="matrix(0.9875 -0.1575 0.1575 0.9875 -20.6996 15.8213)" class="st0" cx="89.5" cy="138.5" rx="0.2" ry="0.5"/>
		</g>
		<g>
			
				<ellipse transform="matrix(0.9875 -0.1577 0.1577 0.9875 -19.5592 16.0048)" class="st0" cx="91.1" cy="131.2" rx="0.2" ry="0.5"/>
		</g>
		<g>
			
				<ellipse transform="matrix(0.3783 -0.9257 0.9257 0.3783 -79.7018 174.0073)" class="st0" cx="89.7" cy="146.3" rx="0.5" ry="0.2"/>
		</g>
		<g>
			
				<ellipse transform="matrix(0.2253 -0.9743 0.9743 0.2253 -63.2246 200.6018)" class="st0" cx="94.5" cy="140.1" rx="0.5" ry="0.2"/>
		</g>
		<g>
			
				<ellipse transform="matrix(7.408621e-02 -0.9973 0.9973 7.408621e-02 -63.6957 209.332)" class="st0" cx="80.9" cy="139" rx="0.5" ry="0.2"/>
		</g>
		<g>
			
				<ellipse transform="matrix(7.673797e-02 -0.9971 0.9971 7.673797e-02 -54.2349 201.7209)" class="st0" cx="81.8" cy="130.1" rx="0.5" ry="0.2"/>
		</g>
		<g>
			
				<ellipse transform="matrix(7.718576e-02 -0.997 0.997 7.718576e-02 -64.6068 200.0502)" class="st0" cx="75.8" cy="134.9" rx="0.5" ry="0.2"/>
		</g>
		<g>
			
				<ellipse transform="matrix(7.569735e-02 -0.9971 0.9971 7.569735e-02 -71.9708 215.0419)" class="st0" cx="80" cy="146.3" rx="0.5" ry="0.2"/>
		</g>
		<g>
			
				<ellipse transform="matrix(0.9107 -0.4132 0.4132 0.9107 -46.4994 52.6307)" class="st0" cx="98.4" cy="133.8" rx="0.2" ry="0.5"/>
		</g>
		<g>
			
				<ellipse transform="matrix(0.2766 -0.961 0.961 0.2766 -70.9088 197.3994)" class="st0" cx="95.7" cy="145.8" rx="0.5" ry="0.2"/>
		</g>
		<g>
			
				<ellipse transform="matrix(0.2756 -0.9613 0.9613 0.2756 -60.7826 195.3055)" class="st0" cx="99.2" cy="138" rx="0.5" ry="0.2"/>
		</g>
		<g>
			
				<ellipse transform="matrix(0.4342 -0.9008 0.9008 0.4342 -61.2852 155.1469)" class="st0" cx="92.9" cy="126.4" rx="0.2" ry="0.5"/>
		</g>
		<g>
			
				<ellipse transform="matrix(0.8849 -0.4658 0.4658 0.8849 -49.0467 52.0979)" class="st0" cx="80.9" cy="125.3" rx="0.5" ry="0.2"/>
		</g>
	</g>
	<g>
		<g>
			
				<ellipse transform="matrix(0.9871 -0.1603 0.1603 0.9871 -20.4706 13.338)" class="st0" cx="72.4" cy="133.5" rx="0.2" ry="0.7"/>
		</g>
		<g>
			<ellipse class="st0" cx="72.8" cy="145.1" rx="17" ry="17"/>
		</g>
		<g>
			
				<ellipse transform="matrix(7.974523e-02 -0.9968 0.9968 7.974523e-02 -86.9547 211.4305)" class="st0" cx="71" cy="152.8" rx="0.7" ry="0.2"/>
		</g>
		<g>
			
				<ellipse transform="matrix(0.9952 -9.779614e-02 9.779614e-02 0.9952 -13.57 7.6867)" class="st0" cx="71.6" cy="142.3" rx="0.2" ry="0.7"/>
		</g>
		<g>
			
				<ellipse transform="matrix(0.9958 -9.138986e-02 9.138986e-02 0.9958 -11.958 7.2408)" class="st0" cx="73.1" cy="134.2" rx="0.2" ry="0.7"/>
		</g>
		<g>
			
				<ellipse transform="matrix(0.9863 -0.1647 0.1647 0.9863 -23.2151 14.6156)" class="st0" cx="76.5" cy="147.3" rx="0.2" ry="0.7"/>
		</g>
		<g>
			
				<ellipse transform="matrix(0.9876 -0.1571 0.1571 0.9876 -20.7765 14.045)" class="st0" cx="78.5" cy="138.4" rx="0.2" ry="0.7"/>
		</g>
		<g>
			<path class="st0" d="M76.6,156.7c-0.1,0.3-0.2,0.7,0,0.7c0.1,0.1,0.3-0.2,0.5-0.5c0.1-0.3,0.1-0.7,0-0.7
				C76.9,156.2,76.7,156.4,76.6,156.7z"/>
		</g>
		<g>
			
				<ellipse transform="matrix(0.2227 -0.9749 0.9749 0.2227 -81.1685 196.5488)" class="st0" cx="82.7" cy="149.2" rx="0.7" ry="0.2"/>
		</g>
		<g>
			
				<ellipse transform="matrix(7.279499e-02 -0.9973 0.9973 7.279499e-02 -86.1964 202.9867)" class="st0" cx="66.1" cy="147.9" rx="0.7" ry="0.2"/>
		</g>
		<g>
			
				<ellipse transform="matrix(8.021706e-02 -0.9968 0.9968 8.021706e-02 -74.8706 193.0974)" class="st0" cx="67.2" cy="137.1" rx="0.7" ry="0.2"/>
		</g>
		<g>
			
				<ellipse transform="matrix(6.947735e-02 -0.9976 0.9976 6.947735e-02 -86.9004 192.7068)" class="st0" cx="59.8" cy="142.9" rx="0.7" ry="0.2"/>
		</g>
		<g>
			
				<ellipse transform="matrix(7.773396e-02 -0.997 0.997 7.773396e-02 -96.3931 209.4465)" class="st0" cx="65" cy="156.8" rx="0.7" ry="0.2"/>
		</g>
		<g>
			
				<ellipse transform="matrix(0.9123 -0.4095 0.4095 0.9123 -50.3241 48.2313)" class="st0" cx="87.4" cy="141.6" rx="0.2" ry="0.7"/>
		</g>
		<g>
			
				<ellipse transform="matrix(0.2826 -0.9592 0.9592 0.2826 -89.4976 192.6514)" class="st0" cx="84" cy="156.2" rx="0.7" ry="0.2"/>
		</g>
		<g>
			
				<ellipse transform="matrix(0.2756 -0.9613 0.9613 0.2756 -76.9707 191.1674)" class="st0" cx="88.3" cy="146.7" rx="0.7" ry="0.2"/>
		</g>
		<g>
			
				<ellipse transform="matrix(0.4322 -0.9018 0.9018 0.4322 -73.7046 147.971)" class="st0" cx="80.6" cy="132.5" rx="0.2" ry="0.7"/>
		</g>
		<g>
			
				<ellipse transform="matrix(0.8861 -0.4634 0.4634 0.8861 -53.2761 45.5557)" class="st0" cx="66.1" cy="131.2" rx="0.7" ry="0.2"/>
		</g>
	</g>
</g>
</svg>
